<?xml version="1.0" encoding="utf-8"?>
<!-- Generator: Adobe Illustrator 19.0.0, SVG Export Plug-In . SVG Version: 6.00 Build 0)  -->
<svg version="1.1" id="Layer_1" xmlns="http://www.w3.org/2000/svg" xmlns:xlink="http://www.w3.org/1999/xlink" x="0px" y="0px"
	 viewBox="-336 576 446 146.2" style="enable-background:new -336 576 446 146.2;" xml:space="preserve">
<style type="text/css">
	.st0{fill:#00A082;}
	.st1{fill:#FFCC1B;}
</style>
<title>glovo_logo</title>
<g id="layer1">
	<g id="g66">
		<path id="path45" class="st0" d="M-336,671.1v-0.3c0-27.8,21.2-51.3,51.2-51.3c14.9,0,24.8,3.5,33.9,10.1c2.2,1.7,3.6,4.3,3.6,7.1
			c0,4.8-3.9,8.6-8.6,8.6h0l0,0c-2-0.1-3.8-0.8-5.4-2c-6.4-4.6-13.3-7.8-24.1-7.8c-18.3,0-32.2,16.1-32.2,35v0.3
			c0,20.4,13.4,35.5,33.8,35.5c9.4,0,17.9-3,24-7.5v-18.6h-19.6c-4.2,0.2-7.7-3.1-7.9-7.3c-0.2-4.2,3.1-7.7,7.3-7.9
			c0.2,0,0.4,0,0.6,0h27.7c4.8-0.1,8.7,3.7,8.8,8.5c0,0.1,0,0.2,0,0.3v26.5c0,5-2,8.5-6.1,11.1c-10.4,7.1-22.7,10.8-35.3,10.8
			C-315.6,722.1-336,699.9-336,671.1 M-227.5,624.7c0-4.7,3.7-8.5,8.4-8.5c0,0,0,0,0,0h0.1c4.7,0,8.6,3.7,8.6,8.5c0,0,0,0,0,0.1
			v87.9c0,4.7-3.8,8.6-8.5,8.6s-8.6-3.8-8.6-8.5V624.7L-227.5,624.7z M-197,683.5v-0.3c0-21.4,17-39.1,40-39.1s39.8,17.4,39.8,38.9
			v0.3c0,21.2-17,39-40.1,39C-180.1,722.1-197,704.7-197,683.5 M-134.4,683.5v-0.3c0-13.2-9.5-24.2-23-24.2
			c-13.8,0-22.5,10.8-22.5,23.8v0.3c0,13.1,9.5,24,22.8,24C-143.2,707.2-134.4,696.4-134.4,683.5 M-74.3,721.8h-0.8
			c-4.7,0-7.8-3-9.8-7.5l-25-57.1c-0.6-1.4-0.9-2.8-1-4.3c0-4.3,3.8-8.3,8.5-8.3c4.7,0,7.1,2.7,8.5,6.3l19.2,49.7l19.6-50
			c1.3-3,3.5-6,8.1-6c4.5-0.1,8.2,3.4,8.3,7.9c0,0.1,0,0.2,0,0.3c0,1.4-0.4,2.8-1,4.1l-25,57.3C-66.5,718.7-69.6,721.8-74.3,721.8
			 M-32.3,683.4v-0.3c0-21.4,17-39.1,39.9-39.1s39.8,17.4,39.8,38.9v0.3c0,21.2-17,39-40.1,39C-15.5,722.1-32.3,704.7-32.3,683.4
			 M30.3,683.4v-0.3c0-13.2-9.5-24.2-23-24.2c-13.8,0-22.5,10.8-22.5,23.8v0.3c0,13.1,9.5,24,22.9,24
			C21.5,707.1,30.3,696.3,30.3,683.4"/>
		<path id="path47" class="st1" d="M76.2,576c-18.6,0-33.7,15.1-33.7,33.7c0,0,0,0,0,0c0,7.1,2.2,13.9,6.4,19.6l0.9,1.3l17.5,24.8
			c1.6,2.2,4.1,3.5,6.8,3.5h4.3c2.7,0,5.3-1.3,6.8-3.5l17.5-24.8l0.9-1.3c4.1-5.7,6.4-12.6,6.4-19.6C109.9,591.1,94.8,576,76.2,576
			 M90.1,619.7l-0.9,1.3l-12.9,18.3l-13-18.3l-0.9-1.4c-2.1-2.9-3.2-6.4-3.3-10c0-9.4,7.6-17.1,17-17.1h0c9.4,0,17.1,7.6,17.1,17v0
			C93.3,613.2,92.2,616.7,90.1,619.7 M66.8,674.1c0-5.1,4.1-9.2,9.2-9.3c0.1,0,0.1,0,0.2,0c5-0.2,9.2,3.8,9.3,8.8c0,0.1,0,0.2,0,0.4
			v0.1c-0.1,5.2-4.4,9.2-9.6,9.1C70.9,683.1,66.9,679.1,66.8,674.1"/>
	</g>
</g>
</svg>
