<svg xmlns="http://www.w3.org/2000/svg" xmlns:xlink="http://www.w3.org/1999/xlink" width="100" zoomAndPan="magnify" viewBox="0 0 75 74.999997" height="100" preserveAspectRatio="xMidYMid meet" version="1.0"><defs><clipPath id="ac7e39bfa7"><path d="M 1 8 L 74.765625 8 L 74.765625 72.304688 L 1 72.304688 Z M 1 8 " clip-rule="nonzero"/></clipPath></defs><g clip-path="url(#ac7e39bfa7)"><path fill="#ff8000" d="M 60.0625 33.980469 L 60.0625 35.148438 C 58.53125 35.113281 59.148438 35.253906 58.113281 34.757812 C 58.945312 33.515625 58.605469 33.671875 60.0625 33.980469 Z M 49.164062 33.980469 C 51.003906 34.019531 50.691406 33.585938 51.109375 35.148438 C 48.5625 35.089844 49.878906 35.339844 49.164062 33.980469 Z M 53.054688 30.867188 C 54.53125 30.160156 54.84375 30.117188 55 32.035156 C 52.699219 31.84375 53.527344 31.480469 53.054688 30.867188 Z M 35.15625 29.699219 C 36.996094 29.742188 36.683594 29.304688 37.101562 30.867188 C 34.554688 30.808594 35.871094 31.058594 35.15625 29.699219 Z M 57.726562 26.976562 C 59.566406 27.015625 59.253906 26.578125 59.671875 28.144531 L 57.726562 28.144531 Z M 42.9375 26.976562 C 44.414062 26.265625 44.722656 26.226562 44.882812 28.144531 C 43.332031 28.015625 43.613281 27.984375 42.9375 26.976562 Z M 49.164062 25.417969 C 50.472656 24.816406 50.363281 25.082031 51.109375 26.195312 C 49.003906 27.207031 49.722656 26.484375 49.164062 25.417969 Z M 23.480469 24.640625 C 24.902344 23.957031 25.007812 23.847656 25.425781 25.417969 C 24.121094 26.023438 24.226562 25.757812 23.480469 24.640625 Z M 34.765625 22.695312 C 36.039062 22.105469 36.179688 22.152344 36.324219 23.863281 C 34.046875 23.671875 35.449219 23.996094 34.765625 22.695312 Z M 55 22.304688 C 56.425781 21.621094 56.527344 21.511719 56.949219 23.082031 C 56.355469 23.355469 56.644531 23.496094 55.894531 23.269531 C 54.203125 22.757812 55.433594 22.867188 55 22.304688 Z M 45.273438 18.414062 C 47.113281 18.457031 46.800781 18.019531 47.21875 19.582031 L 45.273438 19.582031 Z M 26.59375 18.414062 L 28.148438 18.414062 L 28.148438 19.582031 L 26.59375 19.582031 Z M 34.375 16.46875 C 35.683594 15.863281 35.574219 16.128906 36.324219 17.246094 C 34.214844 18.257812 34.933594 17.53125 34.375 16.46875 Z M 9.082031 28.921875 C 9.082031 30.4375 14.257812 33.269531 15.542969 34.132812 C 24.886719 40.410156 42.882812 47.601562 54.613281 47.601562 C 61.664062 47.601562 69.691406 46.972656 73.140625 40.835938 C 74.988281 37.550781 74.1875 36.09375 73.050781 32.664062 C 69.757812 22.714844 61.460938 13.601562 51.453125 10.285156 C 37.183594 5.554688 22.625 9.082031 13.238281 20.625 C 11.925781 22.242188 9.082031 26.394531 9.082031 28.921875 Z M 16.476562 35.535156 C 13.015625 35.535156 12.316406 37.4375 9.90625 37.96875 C 7.316406 38.546875 9.296875 34.785156 7.136719 33.203125 C 4.832031 34.886719 5.765625 38.300781 9.625 40.832031 C 16.269531 45.195312 18.386719 46.902344 26.332031 50.585938 C 36.558594 55.328125 58.835938 62.886719 70.304688 54.339844 C 71.910156 53.144531 71.621094 53.179688 72.511719 51.492188 C 62.804688 44.988281 67.179688 50.539062 62.554688 51.6875 C 60.386719 52.226562 59.050781 50.042969 57.726562 49.15625 C 56.28125 50.125 54.429688 54.214844 52.667969 54.214844 C 50.238281 54.214844 49.832031 48.945312 47.996094 47.601562 C 45.375 48.300781 45.003906 51.21875 42.160156 51.882812 C 38.828125 49.652344 40.933594 47.109375 36.710938 44.875 C 34.039062 46.289062 30.996094 52.164062 28.476562 46.109375 C 27.863281 44.636719 27.792969 43.292969 26.984375 41.761719 C 24.53125 42.335938 23.761719 44.238281 20.757812 44.488281 C 18.542969 41.179688 19.480469 35.535156 16.476562 35.535156 Z M 3.632812 37.484375 C 0.519531 37.484375 0.578125 44.253906 4.410156 46.820312 C 3.542969 50.546875 3.554688 53.679688 5.894531 57.011719 C 6.035156 57.210938 6.753906 58.058594 6.972656 58.273438 C 10.078125 61.351562 15.875 63.871094 19.976562 65.503906 C 26.378906 68.042969 36.453125 71.230469 44.621094 72.207031 C 52.765625 72.503906 58.472656 72.195312 65.6875 70.300781 C 66.390625 69.324219 67.125 68.660156 67.835938 67.4375 C 68.164062 66.871094 68.449219 66.335938 68.71875 65.597656 C 70.273438 61.335938 69.59375 65.011719 72.597656 60.527344 C 73.585938 59.058594 74.007812 58.492188 74.460938 56.550781 C 71.410156 57.261719 69.371094 60.054688 62.785156 60.054688 C 45.890625 60.054688 38.75 56.25 20.757812 60.441406 C 20.71875 58.777344 20.390625 58.289062 20.371094 56.160156 C 20.351562 54.222656 20.164062 53.226562 19.59375 51.878906 C 17.011719 45.792969 4.34375 37.484375 3.632812 37.484375 Z M 3.632812 37.484375 " fill-opacity="1" fill-rule="evenodd"/></g></svg>