<svg xmlns="http://www.w3.org/2000/svg" xmlns:xlink="http://www.w3.org/1999/xlink" width="1080" zoomAndPan="magnify" viewBox="0 0 810 809.999993" height="1080" preserveAspectRatio="xMidYMid meet" version="1.0"><defs><clipPath id="916ee7f098"><path d="M 52 12.53125 L 720 12.53125 L 720 797 L 52 797 Z M 52 12.53125 " clip-rule="nonzero"/></clipPath></defs><g clip-path="url(#916ee7f098)"><path fill="#ffffff" d="M 720 196.746094 C 719.640625 205.859375 718.570312 214.792969 718.925781 223.90625 C 719.285156 235.34375 717.140625 246.421875 716.960938 257.855469 C 716.960938 264.464844 715.886719 270.71875 714.460938 276.972656 C 708.382812 304.847656 698.558594 331.648438 689.445312 358.628906 C 687.480469 364.703125 684.621094 370.601562 681.761719 376.496094 C 679.617188 380.785156 677.472656 385.253906 674.433594 389.183594 C 661.214844 406.875 649.957031 425.632812 638.699219 444.574219 C 632.625 454.9375 625.121094 464.230469 618.332031 474.054688 C 615.113281 478.523438 611.898438 482.988281 608.679688 487.457031 C 602.964844 495.496094 599.03125 504.429688 597.246094 514.082031 C 594.03125 531.589844 590.457031 548.921875 588.492188 566.789062 C 587.777344 573.578125 586.527344 580.191406 585.453125 586.980469 C 584.738281 592.164062 584.203125 597.164062 587.777344 601.8125 C 589.921875 604.671875 590.457031 608.242188 590.8125 611.996094 C 592.601562 626.824219 592.777344 641.65625 592.777344 656.664062 C 592.777344 666.3125 592.421875 676.140625 592.421875 685.789062 C 592.421875 691.328125 590.992188 696.6875 589.5625 702.050781 C 588.492188 705.980469 585.632812 707.945312 581.878906 708.480469 C 580.273438 708.839844 578.664062 708.839844 577.054688 708.839844 C 573.304688 708.839844 570.085938 710.089844 566.871094 711.699219 C 561.152344 714.734375 555.433594 717.59375 549.71875 720.8125 C 545.429688 723.3125 540.960938 724.921875 536.136719 726.171875 C 531.671875 727.242188 527.5625 729.03125 523.808594 731.53125 C 522.378906 732.425781 521.128906 733.496094 519.699219 734.03125 C 509.335938 738.320312 500.761719 744.933594 493.433594 753.332031 C 491.648438 755.472656 488.96875 757.261719 486.464844 758.332031 C 477.53125 762.085938 469.132812 767.265625 459.84375 769.949219 C 452.875 771.914062 446.441406 774.949219 440.722656 779.238281 C 438.042969 781.203125 435.183594 782.453125 431.96875 783.167969 C 426.609375 784.0625 421.25 785.492188 415.710938 786.207031 C 409.457031 787.101562 403.917969 789.246094 398.554688 792.460938 C 390.515625 797.285156 381.761719 797.464844 373.898438 792.460938 C 365.859375 787.457031 357.101562 785.851562 348.167969 784.777344 C 340.84375 783.882812 334.410156 781.738281 328.515625 777.273438 C 324.582031 774.234375 320.117188 772.449219 315.292969 771.199219 C 306 768.519531 297.78125 762.980469 288.132812 761.011719 C 285.632812 760.476562 283.488281 758.691406 281.699219 756.726562 C 279.914062 754.757812 278.304688 752.792969 276.519531 751.007812 C 270.445312 744.21875 263.117188 739.035156 254.898438 734.925781 C 246.859375 730.816406 238.460938 727.421875 230.0625 724.027344 C 222.023438 720.8125 214.339844 716.703125 206.65625 712.589844 C 202.546875 710.449219 198.4375 708.660156 193.789062 708.839844 C 192.539062 708.839844 191.109375 708.839844 189.859375 708.480469 C 186.109375 707.589844 183.25 705.625 182.355469 701.691406 C 181.28125 696.6875 179.855469 691.6875 179.855469 686.324219 C 179.855469 666.671875 178.960938 646.839844 180.03125 627.183594 C 180.390625 621.644531 180.925781 616.285156 181.640625 610.746094 C 181.996094 607.527344 182.535156 604.132812 184.679688 601.632812 C 187.894531 597.703125 187.894531 593.414062 187.179688 588.765625 C 184.140625 567.683594 180.746094 546.597656 177.351562 525.515625 C 174.492188 507.289062 166.808594 491.925781 156.269531 477.09375 C 145.546875 462.085938 134.648438 447.253906 125.535156 431.171875 C 117.496094 417.058594 108.5625 403.65625 98.914062 390.613281 C 90.515625 379.355469 85.332031 366.3125 80.867188 353.089844 C 76.21875 339.691406 71.753906 326.109375 67.464844 312.53125 C 62.820312 297.699219 58.710938 282.691406 56.386719 267.324219 C 55.671875 262.859375 56.207031 258.210938 55.492188 253.746094 C 52.992188 236.769531 54.0625 219.441406 52.8125 202.464844 C 52.277344 194.425781 53.347656 186.382812 53.347656 178.164062 C 53.347656 161.90625 54.242188 145.824219 56.921875 129.921875 C 58.175781 122.597656 58.710938 115.089844 59.246094 107.765625 C 60.316406 89.183594 69.25 75.425781 83.902344 64.882812 C 93.375 58.09375 104.09375 53.269531 114.992188 49.160156 C 141.4375 39.332031 168.777344 32.542969 196.648438 28.074219 C 211.660156 25.574219 226.667969 22.894531 241.675781 21.285156 C 258.652344 19.320312 275.804688 17.890625 292.777344 16.28125 C 308.503906 14.851562 324.40625 15.566406 340.308594 13.601562 C 343.164062 13.246094 346.203125 13.246094 349.0625 13.246094 C 372.113281 13.246094 394.980469 12.53125 418.03125 13.421875 C 435.722656 14.136719 453.589844 14.851562 471.277344 16.105469 C 488.429688 17.355469 505.40625 19.140625 522.378906 20.929688 C 536.496094 22.355469 550.433594 25.214844 564.546875 27.183594 C 572.589844 28.433594 580.628906 28.96875 588.492188 30.398438 C 610.109375 34.328125 631.550781 39.332031 652.277344 46.835938 C 662.105469 50.410156 671.398438 54.699219 680.332031 59.878906 C 689.445312 65.238281 696.769531 72.386719 701.414062 82.035156 C 702.667969 84.714844 703.558594 87.394531 706.777344 88.46875 C 709.097656 89.363281 709.992188 91.683594 710.527344 93.828125 C 711.421875 97.222656 712.492188 100.796875 712.671875 104.191406 C 713.566406 119.378906 716.246094 134.390625 717.855469 149.398438 C 718.210938 152.613281 718.390625 155.828125 718.390625 159.046875 C 718.390625 171.734375 718.390625 184.238281 718.390625 196.925781 C 718.746094 196.925781 718.925781 196.925781 719.285156 196.925781 Z M 662.285156 114.734375 C 654.78125 111.339844 648.527344 107.945312 641.914062 105.441406 C 631.550781 101.691406 621.546875 97.402344 610.46875 95.617188 C 599.570312 94.007812 588.847656 91.863281 577.949219 89.71875 C 571.335938 88.46875 564.726562 86.859375 557.9375 86.144531 C 549.539062 85.253906 541.320312 84 532.921875 82.570312 C 528.453125 81.855469 523.988281 81.144531 519.519531 80.785156 C 508.621094 79.890625 497.722656 78.640625 486.644531 77.390625 C 480.570312 76.675781 474.496094 75.605469 468.242188 76.675781 C 465.382812 77.03125 462.523438 76.496094 459.484375 76.320312 C 456.269531 76.140625 453.054688 75.605469 449.835938 75.605469 C 431.433594 75.78125 413.027344 73.636719 394.625 72.03125 C 388.550781 71.492188 382.296875 71.671875 376.222656 72.03125 C 363.355469 72.921875 350.492188 74.710938 337.625 75.246094 C 316.542969 75.960938 295.636719 77.210938 274.730469 78.820312 C 255.078125 80.429688 235.601562 84.179688 216.125 86.144531 C 201.652344 87.574219 187.714844 91.863281 173.242188 93.828125 C 149.835938 96.867188 128.929688 107.410156 107.132812 115.628906 C 106.59375 115.628906 106.238281 116.519531 106.238281 117.058594 C 106.238281 117.59375 106.773438 118.308594 107.132812 118.664062 C 109.097656 119.738281 111.0625 120.808594 113.207031 121.703125 C 128.394531 128.3125 144.296875 132.78125 160.378906 136.355469 C 202.011719 145.824219 244.535156 150.648438 287.0625 153.6875 C 305.820312 155.117188 324.40625 156.1875 343.34375 156.1875 C 383.726562 156.367188 424.285156 156.1875 464.667969 153.863281 C 465.558594 153.863281 466.632812 153.863281 467.527344 153.6875 C 484.320312 151.898438 500.9375 150.113281 517.734375 148.683594 C 540.960938 146.539062 564.011719 142.964844 586.703125 138.320312 C 604.75 134.746094 622.796875 130.636719 640.308594 124.5625 C 646.738281 122.417969 652.992188 119.738281 659.246094 117.058594 C 660.140625 116.699219 660.675781 115.984375 662.285156 114.914062 Z M 68.714844 150.113281 C 68.179688 151.542969 67.824219 152.257812 67.824219 152.792969 C 67.464844 183.882812 69.964844 214.792969 72.648438 245.707031 C 73.363281 253.386719 74.253906 261.070312 75.328125 268.753906 C 77.828125 285.550781 83.726562 301.273438 88.371094 317.355469 C 90.15625 323.789062 91.945312 324.503906 98.199219 322.179688 C 98.734375 322 99.449219 321.644531 99.984375 321.464844 C 111.421875 315.925781 122.675781 310.566406 134.113281 305.027344 C 136.078125 304.132812 136.613281 302.167969 135.71875 300.203125 C 135.363281 299.308594 134.828125 298.414062 134.289062 297.699219 C 130.003906 292.160156 126.25 286.085938 121.246094 280.726562 C 113.921875 273.042969 107.308594 264.464844 100.164062 256.605469 C 90.15625 245.707031 83.726562 232.660156 78.542969 219.082031 C 77.113281 215.152344 75.863281 211.042969 74.789062 207.109375 C 74.253906 204.964844 74.078125 202.644531 73.898438 200.320312 C 73.898438 198.714844 74.433594 196.925781 76.21875 196.746094 C 78.007812 196.570312 79.257812 197.820312 79.972656 199.25 C 80.867188 201.394531 81.402344 203.539062 82.296875 205.679688 C 87.121094 218.1875 92.480469 230.160156 100.878906 240.703125 C 107.667969 249.277344 114.636719 258.035156 122.496094 265.539062 C 135.898438 278.046875 146.441406 292.699219 155.730469 308.242188 C 161.628906 318.070312 169.132812 326.289062 178.601562 332.898438 C 186.820312 338.617188 194.863281 344.515625 202.722656 350.769531 C 207.011719 354.164062 211.121094 357.914062 214.160156 362.5625 C 220.234375 371.316406 228.632812 377.390625 237.386719 382.75 C 249.179688 389.898438 259.542969 398.476562 268.121094 409.195312 C 274.015625 416.523438 280.269531 423.3125 288.3125 428.492188 C 297.601562 434.390625 306.535156 440.820312 315.828125 446.71875 C 320.832031 449.933594 324.941406 453.6875 328.691406 458.332031 C 334.589844 465.835938 341.558594 471.910156 350.671875 475.128906 C 353.351562 476.023438 355.671875 476.023438 357.996094 474.59375 C 364.605469 470.484375 371.039062 466.015625 376.222656 460.121094 C 380.867188 454.757812 385.691406 449.398438 390.515625 444.394531 C 394.980469 439.75 395.160156 439.929688 390.15625 435.640625 C 388.015625 433.855469 385.871094 431.886719 383.546875 429.921875 C 371.753906 420.453125 359.78125 410.984375 346.203125 404.015625 C 341.558594 401.691406 340.664062 401.511719 336.734375 405.085938 C 332.445312 409.015625 328.515625 413.304688 324.226562 417.414062 C 322.4375 419.203125 320.472656 420.988281 318.328125 422.417969 C 316.007812 424.027344 312.789062 422.417969 312.613281 419.558594 C 312.613281 417.953125 312.613281 416.164062 313.148438 414.914062 C 314.398438 412.234375 315.828125 409.730469 317.613281 407.410156 C 320.117188 404.015625 322.976562 400.976562 325.65625 397.582031 C 327.085938 395.796875 326.90625 393.828125 325.476562 392.222656 C 322.4375 388.828125 319.222656 385.609375 316.183594 382.214844 C 310.289062 375.605469 303.679688 370.066406 295.636719 366.3125 C 291.527344 364.527344 287.597656 362.382812 284.023438 359.34375 C 277.589844 353.804688 270.980469 348.800781 265.796875 342.011719 C 264.191406 340.046875 262.222656 338.261719 260.4375 336.472656 C 257.398438 333.078125 254.003906 332.542969 250.074219 334.867188 C 242.75 339.152344 234.886719 342.191406 228.097656 347.195312 C 224.703125 349.695312 220.949219 351.484375 217.199219 353.449219 C 215.769531 354.164062 213.980469 353.984375 212.730469 352.554688 C 211.121094 350.945312 211.300781 348.980469 212.375 347.195312 C 213.625 345.40625 215.230469 343.800781 217.019531 342.371094 C 223.09375 337.546875 229.527344 333.257812 236.496094 329.683594 C 244.535156 325.394531 244.355469 324.503906 237.03125 320.035156 C 233.992188 318.25 230.957031 316.285156 227.738281 314.855469 C 215.410156 309.136719 205.582031 300.382812 197.898438 289.304688 C 195.933594 286.445312 193.253906 283.941406 190.753906 281.261719 C 188.25 278.582031 185.214844 278.046875 181.996094 279.832031 C 177.710938 282.15625 173.601562 284.835938 169.492188 287.335938 C 167.347656 288.589844 165.203125 290.195312 162.878906 291.269531 C 160.199219 292.519531 157.699219 290.375 158.054688 287.335938 C 158.414062 283.941406 160.199219 281.441406 162.523438 278.941406 C 165.558594 275.902344 169.3125 273.9375 172.707031 271.613281 C 174.851562 270.183594 175.207031 268.574219 173.601562 266.789062 C 172.347656 265.359375 171.097656 263.929688 169.667969 262.5 C 164.84375 258.035156 160.914062 253.210938 157.699219 247.3125 C 154.839844 242.132812 151.800781 237.308594 148.585938 232.484375 C 143.582031 224.800781 137.507812 218.1875 131.609375 211.398438 C 124.285156 202.824219 116.78125 194.246094 111.777344 183.882812 C 109.632812 179.414062 106.238281 176.199219 101.949219 173.519531 C 93.730469 168.335938 85.511719 163.15625 78.722656 156.007812 C 76.042969 153.148438 72.648438 151.183594 68.359375 149.398438 Z M 648.882812 319.5 C 652.277344 321.464844 654.960938 322.714844 657.28125 324.324219 C 658.890625 325.394531 660.320312 326.824219 659.960938 329.148438 C 659.785156 331.648438 657.996094 333.078125 655.675781 333.792969 C 651.207031 335.222656 646.738281 335.222656 642.273438 333.972656 C 633.875 331.828125 627.800781 335.042969 622.796875 341.65625 C 620.296875 345.050781 617.617188 348.265625 614.933594 351.660156 C 606.539062 362.023438 598.316406 372.210938 587.242188 380.070312 C 583.308594 382.929688 579.734375 386.324219 576.339844 389.542969 C 574.019531 391.683594 571.695312 394.007812 569.730469 396.511719 C 567.40625 399.367188 567.941406 401.871094 571.335938 403.65625 C 576.164062 406.335938 581.164062 408.480469 586.882812 408.300781 C 591.351562 408.300781 595.996094 407.945312 600.460938 407.765625 C 604.035156 407.765625 607.609375 407.765625 610.824219 409.554688 C 611.898438 410.269531 612.792969 411.160156 612.792969 412.589844 C 612.792969 414.019531 612.078125 415.09375 611.003906 415.808594 C 610.289062 416.34375 609.21875 416.699219 608.324219 416.878906 C 595.460938 419.917969 582.773438 420.988281 570.265625 415.808594 C 568.480469 415.09375 566.511719 414.554688 564.726562 414.019531 C 559.722656 412.234375 558.292969 411.160156 554.007812 416.878906 C 548.109375 424.742188 540.960938 431.171875 532.742188 436.710938 C 524.703125 442.25 517.734375 449.042969 511.300781 456.367188 C 508.085938 459.941406 504.332031 463.15625 503.082031 468.160156 C 506.835938 472.984375 512.910156 472.449219 517.914062 474.054688 C 519.164062 474.414062 520.414062 474.414062 521.84375 474.414062 C 527.382812 474.414062 532.742188 475.84375 537.925781 477.449219 C 542.929688 479.058594 547.929688 480.667969 553.113281 480.308594 C 562.226562 479.59375 570.085938 483.703125 578.128906 486.742188 C 580.09375 487.457031 580.449219 489.421875 579.734375 491.566406 C 578.484375 494.960938 576.164062 497.820312 573.660156 500.320312 C 565.441406 508.71875 557.402344 516.9375 549.183594 525.160156 C 547.929688 526.585938 546.144531 527.660156 544.535156 528.375 C 543.820312 528.730469 542.570312 528.375 541.855469 527.839844 C 541.320312 527.300781 540.785156 526.050781 540.960938 525.335938 C 541.140625 524.085938 541.855469 522.835938 542.390625 521.761719 C 546.5 515.507812 551.324219 509.792969 556.6875 504.609375 C 559.007812 502.289062 561.152344 499.964844 563.476562 497.640625 C 564.546875 496.390625 565.621094 494.960938 564.726562 493.355469 C 564.011719 491.925781 562.402344 491.210938 560.617188 491.03125 C 559.367188 491.03125 558.117188 490.851562 556.6875 491.03125 C 548.824219 491.210938 541.140625 490.671875 533.816406 487.992188 C 531.492188 487.101562 528.8125 486.921875 526.132812 486.921875 C 517.914062 486.921875 510.050781 484.777344 502.367188 482.453125 C 500.761719 481.917969 499.332031 481.382812 497.722656 481.023438 C 495.042969 480.132812 492.71875 480.667969 490.574219 482.632812 C 486.109375 486.386719 481.640625 489.957031 476.816406 493.355469 C 470.742188 497.640625 464.488281 501.75 458.414062 506.039062 C 453.589844 509.433594 449.480469 513.542969 445.726562 518.011719 C 443.941406 520.15625 443.941406 522.300781 446.085938 524.085938 C 453.765625 530.519531 461.449219 536.949219 471.636719 539.273438 C 480.210938 541.238281 488.429688 543.917969 496.648438 546.957031 C 502.367188 549.101562 508.265625 550.886719 514.695312 549.101562 C 517.019531 548.566406 519.34375 549.101562 521.128906 550.710938 C 524.34375 553.746094 528.457031 554.640625 532.566406 555.710938 C 540.070312 557.855469 547.394531 560.179688 554.898438 562.324219 C 558.652344 563.394531 562.226562 564.644531 566.15625 565.539062 C 569.910156 566.433594 571.335938 565.539062 572.050781 561.429688 C 574.195312 549.101562 576.519531 536.59375 578.128906 524.085938 C 580.628906 504.429688 587.238281 486.386719 599.746094 470.839844 C 602.429688 467.625 604.929688 464.230469 607.253906 460.65625 C 613.328125 451.363281 620.832031 443.324219 625.835938 433.496094 C 634.589844 416.523438 645.132812 400.441406 655.851562 384.894531 C 663.535156 373.816406 669.433594 362.023438 673.71875 349.515625 C 679.972656 331.472656 685.15625 313.066406 691.230469 295.019531 C 696.769531 278.402344 699.269531 261.25 699.808594 242.488281 C 694.445312 250.53125 689.621094 257.855469 685.15625 265.179688 C 679.972656 273.757812 674.792969 282.335938 669.789062 291.089844 C 663.894531 301.273438 656.746094 310.207031 648.527344 319.855469 Z M 574.554688 650.589844 C 574.910156 643.980469 574.554688 636.476562 572.945312 629.148438 C 572.589844 627.363281 570.980469 626.46875 569.195312 627.183594 C 567.40625 627.898438 565.621094 628.792969 564.011719 629.683594 C 554.363281 634.6875 544.535156 638.082031 533.636719 638.617188 C 524.882812 638.976562 516.484375 641.476562 508.441406 645.410156 C 504.332031 647.550781 501.652344 650.234375 502.011719 655.058594 C 502.011719 655.773438 502.011719 656.308594 502.011719 657.023438 C 503.082031 665.597656 498.4375 672.746094 494.863281 679.714844 C 492.539062 684.183594 488.074219 684.359375 484.320312 680.964844 C 482.535156 679.359375 481.640625 677.390625 481.640625 675.070312 C 481.640625 672.210938 481.820312 669.171875 481.640625 666.3125 C 481.640625 659.34375 480.210938 658.453125 474.496094 661.667969 C 473.601562 662.203125 472.707031 662.5625 471.992188 663.097656 C 466.988281 667.386719 461.09375 669.886719 455.019531 672.210938 C 451.445312 673.640625 447.871094 675.425781 444.476562 677.390625 C 431.613281 684.539062 418.390625 690.078125 404.09375 693.472656 C 400.34375 694.367188 396.589844 695.617188 393.015625 697.046875 C 388.90625 698.832031 384.976562 698.832031 380.867188 697.046875 C 376.042969 695.261719 371.039062 693.472656 366.214844 692.222656 C 352.636719 688.648438 339.769531 683.644531 327.621094 676.675781 C 320.292969 672.566406 312.433594 669.351562 304.929688 665.777344 C 303.140625 664.882812 301.890625 665.777344 301.710938 667.921875 C 301.710938 671.675781 302.25 672.746094 305.464844 673.640625 C 314.042969 675.605469 321.902344 679.179688 329.585938 683.644531 C 330.660156 684.359375 332.265625 685.074219 331.730469 686.503906 C 331.195312 688.113281 329.585938 687.398438 328.515625 687.039062 C 323.867188 685.433594 319.402344 683.644531 314.753906 682.039062 C 312.074219 681.144531 309.21875 680.070312 306.535156 679.359375 C 304.570312 678.820312 302.605469 680.25 302.070312 682.214844 C 300.28125 689.007812 301.890625 692.222656 308.324219 695.4375 C 310.109375 696.332031 311.71875 697.402344 313.503906 697.941406 C 322.261719 700.621094 329.765625 705.980469 337.804688 710.089844 C 340.128906 711.339844 342.449219 712.414062 343.703125 714.914062 C 344.238281 715.988281 344.417969 717.414062 344.238281 718.667969 C 343.878906 720.453125 342.273438 721.167969 340.484375 721.347656 C 339.234375 721.347656 337.984375 721.347656 336.734375 720.988281 C 332.625 720.097656 328.691406 718.667969 325.121094 716.164062 C 319.222656 712.054688 312.789062 709.019531 306.359375 705.980469 C 302.25 704.015625 300.640625 705.445312 300.640625 710.269531 C 300.640625 712.769531 301.535156 714.558594 304.035156 715.628906 C 306.359375 716.699219 308.679688 717.953125 311.183594 718.667969 C 318.152344 721.167969 325.296875 723.492188 332.265625 725.992188 C 334.054688 726.707031 335.839844 727.421875 337.625 728.316406 C 338.699219 729.03125 339.769531 730.101562 338.878906 731.53125 C 338.339844 732.246094 337.625 732.960938 336.734375 733.140625 C 333.515625 734.03125 330.300781 733.140625 327.261719 731.890625 C 319.222656 728.671875 311.003906 725.457031 302.964844 722.238281 C 301.535156 721.703125 300.460938 722.238281 300.28125 724.027344 C 299.925781 727.957031 300.640625 729.386719 304.214844 730.816406 C 310.644531 733.140625 316.898438 735.460938 323.332031 737.785156 C 326.726562 739.035156 330.121094 740.285156 332.445312 743.144531 C 332.800781 743.503906 332.800781 744.394531 332.625 744.933594 C 332.625 745.46875 331.910156 746.183594 331.371094 746.183594 C 330.121094 746.183594 328.691406 746.363281 327.621094 746.183594 C 321.367188 744.394531 315.292969 742.429688 309.394531 739.570312 C 307.429688 738.679688 305.105469 737.964844 302.964844 737.429688 C 302.25 737.429688 300.996094 737.964844 300.640625 738.679688 C 300.28125 739.394531 300.28125 740.644531 300.640625 741.359375 C 301.175781 742.429688 302.25 743.324219 303.320312 744.039062 C 305.820312 745.648438 308.324219 747.078125 310.824219 748.503906 C 326.371094 757.796875 341.914062 767.089844 360.140625 770.304688 C 368.179688 771.734375 375.683594 774.773438 382.296875 779.773438 C 385.332031 782.097656 388.015625 782.097656 391.050781 779.953125 C 399.09375 774.234375 408.027344 770.660156 417.851562 769.054688 C 426.964844 767.625 435.183594 763.695312 443.226562 759.582031 C 455.375 753.332031 466.8125 746.003906 478.425781 739.035156 C 486.109375 734.390625 493.433594 728.851562 501.296875 724.5625 C 514.695312 717.238281 528.277344 710.625 541.855469 703.65625 C 545.609375 701.691406 549.71875 700.621094 553.828125 700.085938 C 556.148438 699.726562 558.292969 699.726562 560.617188 699.546875 C 564.191406 699.191406 566.691406 697.402344 567.941406 694.007812 C 569.015625 690.972656 570.445312 687.933594 571.160156 684.894531 C 573.839844 673.816406 575.089844 662.5625 574.734375 650.410156 Z M 139.113281 308.0625 C 137.328125 308.0625 136.078125 309.316406 134.828125 310.207031 C 124.464844 318.25 112.847656 323.789062 100.699219 328.074219 C 99.804688 328.433594 98.914062 328.613281 98.019531 329.148438 C 94.804688 330.578125 93.910156 332.007812 94.804688 335.222656 C 96.589844 341.121094 98.375 347.015625 100.34375 352.734375 C 101.949219 357.558594 104.808594 361.132812 109.097656 363.992188 C 118.566406 370.242188 126.609375 378.464844 134.648438 386.324219 C 136.433594 388.113281 138.042969 390.078125 140.007812 392.042969 C 142.511719 394.542969 143.761719 394.722656 146.976562 392.9375 C 151.800781 390.257812 156.445312 387.398438 161.269531 384.539062 C 165.738281 381.859375 170.027344 379 174.316406 376.320312 C 177.710938 374.175781 181.28125 373.101562 185.394531 372.925781 C 185.929688 372.925781 186.644531 373.460938 186.820312 373.816406 C 187 374.355469 186.820312 375.246094 186.820312 375.605469 C 185.035156 377.390625 183.070312 379.355469 180.925781 380.609375 C 171.992188 386.324219 162.878906 391.863281 153.765625 397.402344 C 148.585938 400.441406 148.226562 402.226562 151.265625 407.410156 C 157.519531 418.128906 166.808594 425.632812 177.53125 431.171875 C 186.820312 435.996094 195.398438 441.359375 204.332031 446.898438 C 208.976562 449.757812 213.625 452.792969 216.839844 457.4375 C 218.269531 459.40625 220.054688 459.582031 221.84375 458.152344 C 228.8125 452.257812 237.03125 448.328125 244.355469 443.144531 C 248.109375 440.464844 252.21875 438.855469 256.683594 437.605469 C 257.9375 437.25 259.367188 437.425781 260.082031 438.679688 C 260.796875 439.929688 260.082031 441.179688 259.1875 442.25 C 258.113281 443.503906 257.042969 444.753906 255.613281 445.46875 C 250.433594 448.863281 245.25 452.078125 240.066406 455.292969 C 235.957031 457.976562 232.027344 460.65625 228.097656 463.691406 C 224.878906 466.015625 225.058594 468.339844 228.097656 470.839844 C 235.601562 476.558594 243.464844 481.5625 251.683594 486.207031 C 257.9375 489.78125 264.90625 492.460938 269.90625 497.285156 C 279.199219 506.039062 291.347656 508.898438 301.710938 515.332031 C 303.855469 516.582031 306.179688 516.222656 308.144531 514.792969 C 309.929688 513.542969 311.71875 512.113281 313.683594 510.863281 C 322.976562 504.253906 329.585938 494.78125 338.878906 488.171875 C 340.484375 487.101562 340.128906 484.777344 338.339844 484.242188 C 331.550781 482.097656 327.085938 476.734375 322.4375 471.910156 C 320.117188 469.589844 317.972656 467.265625 315.828125 464.765625 C 312.613281 461.011719 308.859375 458.152344 304.75 455.472656 C 295.457031 449.578125 286.347656 443.503906 277.054688 437.605469 C 272.585938 434.746094 268.835938 431.351562 265.621094 427.242188 C 254.542969 413.125 242.390625 400.441406 226.667969 391.328125 C 217.914062 386.324219 209.871094 379.535156 203.617188 370.78125 C 201.652344 367.921875 199.152344 365.0625 196.472656 362.917969 C 187.714844 355.769531 178.960938 348.625 169.667969 342.011719 C 159.484375 334.6875 150.90625 326.289062 145.367188 315.03125 C 144.296875 312.710938 142.511719 310.746094 141.082031 308.601562 C 140.722656 308.0625 140.007812 308.0625 139.472656 307.707031 Z M 379.4375 220.511719 C 375.328125 219.976562 373.539062 221.40625 372.113281 223.191406 C 366.75 229.265625 361.390625 235.34375 356.386719 241.597656 C 349.777344 249.636719 343.164062 257.5 335.484375 264.464844 C 333.339844 266.433594 331.550781 268.753906 329.765625 271.078125 C 328.691406 272.507812 328.515625 274.113281 329.945312 275.367188 C 331.910156 276.972656 333.875 278.941406 336.019531 280.191406 C 344.417969 285.191406 352.636719 290.015625 361.390625 294.484375 C 370.324219 298.953125 379.4375 303.238281 387.476562 309.492188 C 394.625 315.210938 402.488281 319.5 410.347656 324.324219 C 414.636719 327.003906 417.851562 326.46875 421.785156 323.609375 C 427.144531 319.5 431.96875 314.675781 437.152344 310.207031 C 447.335938 301.09375 457.699219 292.519531 467.882812 283.40625 C 470.742188 280.90625 473.601562 278.226562 476.28125 275.367188 C 477.175781 274.292969 476.816406 272.863281 475.566406 271.972656 C 474.851562 271.433594 473.78125 271.257812 472.886719 270.71875 C 456.804688 263.75 441.796875 254.996094 429.289062 242.308594 C 423.929688 236.949219 417.675781 233.199219 410.347656 230.875 C 403.023438 228.550781 395.519531 226.230469 388.550781 222.65625 C 385.332031 220.867188 381.761719 220.867188 379.792969 220.691406 Z M 319.402344 282.335938 C 318.152344 283.050781 316.898438 283.585938 315.828125 284.300781 C 310.824219 287.335938 306.894531 291.625 302.785156 295.734375 C 300.105469 298.414062 297.425781 301.632812 294.207031 303.597656 C 285.808594 308.601562 278.484375 314.855469 271.160156 321.109375 C 267.941406 323.789062 267.941406 324.324219 270.800781 327.003906 C 274.015625 330.21875 277.589844 333.078125 280.449219 336.472656 C 287.238281 345.050781 295.636719 351.125 305.285156 356.308594 C 315.648438 361.847656 324.761719 368.992188 331.730469 378.640625 C 333.160156 380.609375 335.304688 382.394531 337.269531 384.003906 C 339.414062 385.96875 341.734375 386.144531 344.417969 384.539062 C 353.351562 379.179688 361.925781 373.640625 369.609375 366.492188 C 379.972656 356.84375 388.90625 345.585938 400.699219 337.367188 C 403.203125 335.582031 403.023438 333.613281 400.34375 332.007812 C 391.585938 327.183594 383.011719 322 375.507812 315.210938 C 373.898438 313.78125 371.753906 312.886719 369.789062 311.636719 C 354.066406 302.703125 337.625 295.019531 323.332031 283.765625 C 322.4375 283.050781 321.007812 282.691406 319.757812 282.15625 Z M 613.683594 265.894531 C 614.042969 266.433594 614.933594 266.96875 615.113281 267.863281 C 615.828125 270.183594 615.113281 272.328125 614.042969 274.472656 C 611.898438 279.117188 609.394531 283.765625 606 287.695312 C 601.890625 292.699219 597.78125 297.699219 593.671875 302.703125 C 592.242188 304.492188 592.777344 306.632812 595.101562 307.171875 C 597.601562 307.886719 600.105469 308.242188 602.605469 308.957031 C 609.753906 311.101562 616.902344 313.425781 623.871094 315.925781 C 629.050781 317.890625 632.980469 316.640625 637.269531 313.246094 C 647.8125 304.3125 655.496094 293.054688 663 281.796875 C 663.355469 281.261719 663.714844 280.726562 663.894531 280.011719 C 665.679688 276.257812 665.144531 274.472656 661.390625 273.222656 C 658.710938 272.328125 655.851562 271.613281 652.992188 270.898438 C 642.273438 268.21875 631.550781 265.539062 621.726562 260.535156 C 610.46875 254.816406 598.675781 250.171875 586.703125 246.242188 C 579.378906 243.917969 572.050781 241.058594 564.90625 238.199219 C 559.1875 235.878906 553.648438 233.199219 548.109375 230.519531 C 542.570312 227.660156 538.460938 228.910156 534.351562 233.375 C 529.527344 238.738281 524.34375 243.5625 519.519531 248.742188 C 514.519531 254.101562 509.515625 259.820312 504.691406 265.359375 C 502.367188 268.039062 502.546875 269.828125 505.40625 271.792969 C 510.410156 275.367188 515.589844 278.761719 521.488281 280.90625 C 530.597656 284.300781 539.710938 287.515625 548.824219 291.089844 C 555.433594 293.769531 562.046875 296.449219 568.480469 299.488281 C 573.125 301.632812 576.875 301.453125 580.808594 297.699219 C 589.5625 289.480469 598.140625 281.261719 605.464844 271.792969 C 606.894531 270.003906 608.324219 268.398438 610.109375 266.789062 C 611.003906 265.894531 612.433594 265.539062 614.042969 265.894531 Z M 486.285156 375.070312 C 489.683594 374.710938 491.648438 372.746094 493.253906 370.957031 C 507.371094 355.59375 525.058594 344.691406 541.140625 331.828125 C 548.644531 328.789062 553.113281 322.179688 558.472656 316.640625 C 560.972656 314.140625 560.617188 312.171875 557.757812 310.386719 C 556.148438 309.316406 554.363281 308.601562 552.578125 307.707031 C 542.929688 302.347656 532.207031 299.488281 521.84375 295.734375 C 513.804688 292.699219 506.476562 288.945312 499.6875 284.121094 C 492.003906 278.761719 491.46875 278.941406 484.679688 284.65625 C 483.785156 285.550781 482.714844 286.445312 481.820312 287.335938 C 474.671875 293.769531 467.882812 300.917969 460.199219 306.632812 C 450.195312 314.316406 442.332031 324.324219 432.148438 331.828125 C 430.359375 333.078125 430.183594 335.042969 431.789062 337.011719 C 431.96875 337.1875 432.148438 337.546875 432.324219 337.726562 C 446.085938 353.628906 462.703125 365.597656 482 373.816406 C 483.429688 374.355469 485.035156 374.710938 486.109375 375.070312 Z M 196.113281 489.066406 C 195.398438 489.066406 194.683594 489.066406 194.148438 489.066406 C 193.433594 488.707031 192.359375 488.171875 192.003906 487.457031 C 191.46875 486.5625 192.003906 485.492188 193.074219 485.132812 C 198.613281 482.8125 202.011719 477.808594 206.121094 473.699219 C 208.621094 471.199219 208.621094 470.125 206.121094 467.085938 C 204.332031 464.765625 202.367188 462.441406 200.222656 460.835938 C 195.21875 457.261719 190.21875 453.6875 185.035156 450.46875 C 176.996094 445.644531 168.777344 441 160.914062 435.996094 C 155.375 432.425781 150.550781 428.316406 146.796875 422.953125 C 143.761719 418.664062 140.902344 414.378906 137.863281 410.269531 C 137.148438 409.195312 136.257812 408.125 134.828125 409.015625 C 133.933594 409.554688 134.289062 410.804688 134.828125 411.699219 C 137.148438 415.984375 140.007812 419.917969 142.152344 424.382812 C 149.835938 440.285156 160.734375 454.042969 171.097656 467.980469 C 182.535156 483.347656 191.46875 499.429688 193.96875 518.726562 C 194.503906 522.300781 194.863281 525.695312 195.398438 529.269531 C 195.933594 533.734375 197.542969 537.308594 202.011719 539.273438 C 209.335938 542.667969 215.945312 547.671875 222.378906 552.316406 C 227.382812 555.890625 233.101562 558.390625 238.460938 561.25 C 240.246094 562.144531 242.390625 562.679688 244 561.609375 C 251.324219 556.785156 259.542969 553.390625 265.441406 546.597656 C 270.980469 540.167969 277.769531 535.164062 284.738281 530.519531 C 286.167969 529.625 287.417969 528.910156 288.847656 527.839844 C 290.277344 526.765625 290.277344 524.800781 288.488281 523.90625 C 286.347656 522.65625 284.023438 521.046875 281.699219 520.332031 C 275.804688 518.367188 270.800781 514.972656 265.796875 511.042969 C 260.972656 507.289062 255.972656 503.714844 250.609375 500.679688 C 241.320312 495.496094 232.027344 489.957031 223.273438 483.882812 C 214.695312 477.988281 214.339844 475.84375 205.761719 484.777344 C 203.261719 487.277344 200.222656 489.242188 196.472656 489.601562 Z M 198.613281 650.589844 C 198.613281 650.589844 198.613281 650.589844 198.792969 650.589844 C 198.792969 653.804688 198.792969 657.023438 198.792969 660.238281 C 199.328125 670.960938 200.9375 681.324219 204.332031 691.6875 C 206.121094 696.867188 209.15625 699.726562 214.875 699.90625 C 222.738281 700.085938 229.882812 702.941406 236.851562 706.695312 C 251.144531 714.199219 265.796875 720.988281 279.734375 729.207031 C 281.34375 730.101562 283.128906 729.207031 283.308594 727.421875 C 283.84375 721.882812 284.023438 716.523438 284.558594 710.984375 C 285.988281 698.832031 287.597656 686.683594 289.027344 674.53125 C 289.382812 670.78125 289.203125 666.851562 289.382812 662.917969 C 289.5625 658.808594 287.777344 656.128906 284.203125 654.34375 C 282.773438 653.628906 281.34375 652.734375 279.914062 652.019531 C 273.480469 649.160156 266.871094 646.125 260.4375 643.621094 C 254.003906 640.941406 252.933594 642.90625 253.113281 648.980469 C 253.113281 651.484375 253.113281 654.164062 253.113281 656.664062 C 253.113281 657.917969 253.113281 659.34375 252.574219 660.417969 C 251.859375 663.097656 249.894531 664.882812 247.214844 665.242188 C 244.714844 665.597656 242.925781 664.167969 241.496094 662.382812 C 240.066406 660.597656 239.53125 658.453125 239.355469 656.128906 C 239.355469 652.914062 239.355469 649.695312 239.175781 646.480469 C 238.816406 640.046875 238.28125 639.332031 232.207031 638.082031 C 226.488281 637.011719 220.949219 635.222656 215.769531 632.542969 C 213.445312 631.472656 211.121094 630.222656 208.800781 629.148438 C 202.722656 626.289062 200.757812 627.183594 199.867188 634.152344 C 199.152344 639.511719 199.152344 645.050781 198.792969 650.589844 Z M 307.789062 275.367188 C 307.25 274.472656 306.894531 273.402344 306.359375 273.042969 C 303.679688 271.078125 301.175781 269.289062 298.316406 267.503906 C 286.523438 260.179688 276.699219 251.066406 270.445312 238.558594 C 269.550781 236.769531 268.476562 235.164062 267.585938 233.554688 C 265.441406 230.160156 262.761719 227.660156 259.367188 225.515625 C 254.898438 222.835938 253.828125 222.835938 250.074219 226.40625 C 244.894531 231.230469 240.066406 236.59375 234.707031 241.238281 C 223.808594 250.351562 213.265625 260 202.722656 269.46875 C 200.757812 271.257812 200.582031 272.6875 202.367188 274.292969 C 207.90625 279.296875 212.375 285.371094 217.019531 291.089844 C 220.054688 295.019531 223.808594 298.058594 228.097656 300.382812 C 236.496094 305.027344 245.070312 309.851562 253.46875 314.496094 C 257.042969 316.460938 260.082031 316.285156 263.296875 313.601562 C 267.40625 310.03125 271.515625 306.277344 276.160156 303.417969 C 287.597656 296.449219 296.53125 286.445312 306.714844 278.046875 C 307.429688 277.511719 307.609375 276.4375 308.324219 275.542969 Z M 409.277344 431.351562 C 410.882812 430.636719 412.3125 430.28125 413.742188 429.386719 C 417.675781 427.0625 421.605469 424.742188 425.179688 422.238281 C 430.539062 418.664062 435.722656 414.734375 440.007812 409.730469 C 443.226562 405.980469 446.621094 402.761719 450.730469 399.90625 C 456.804688 395.617188 461.988281 390.257812 468.597656 386.683594 C 470.742188 385.609375 470.742188 383.464844 468.597656 382.035156 C 465.917969 380.25 463.058594 378.640625 460.199219 377.210938 C 450.910156 372.566406 442.511719 366.847656 435.183594 359.167969 C 430.898438 354.699219 426.609375 350.410156 421.960938 346.300781 C 417.675781 342.371094 416.421875 342.371094 411.777344 345.40625 C 403.917969 350.589844 396.589844 356.484375 390.515625 363.632812 C 387.835938 366.847656 384.796875 369.707031 381.582031 372.386719 C 375.328125 377.925781 369.429688 384.003906 362.105469 388.113281 C 361.035156 388.828125 360.140625 389.71875 359.066406 390.613281 C 356.746094 392.578125 356.746094 394.1875 359.605469 395.796875 C 367.464844 400.261719 374.078125 406.515625 381.761719 411.339844 C 386.40625 414.378906 390.695312 417.59375 394.445312 421.523438 C 396.949219 424.027344 399.808594 426.171875 402.664062 428.136719 C 404.453125 429.386719 406.773438 429.921875 408.917969 430.816406 Z M 628.515625 190.671875 C 638.519531 195.675781 646.382812 200.140625 654.960938 202.644531 C 659.785156 204.074219 661.214844 203.539062 663.894531 199.605469 C 665.324219 197.460938 666.574219 195.140625 668.003906 192.996094 C 668.894531 191.746094 670.148438 190.136719 671.933594 191.207031 C 673.542969 192.101562 673.542969 194.066406 673.183594 195.496094 C 672.648438 198 671.753906 200.5 670.863281 202.824219 C 670.324219 204.609375 670.863281 206.039062 672.648438 206.753906 C 674.078125 207.46875 675.6875 207.824219 677.292969 208.363281 C 680.152344 209.253906 682.476562 210.863281 684.621094 212.828125 C 688.015625 215.867188 688.730469 218.726562 687.121094 221.226562 C 685.691406 223.371094 682.832031 223.726562 679.082031 221.941406 C 677.117188 221.046875 675.148438 219.796875 673.003906 218.726562 C 663 213.722656 662.285156 213.722656 654.601562 221.761719 C 647.097656 229.445312 639.59375 236.949219 630.660156 243.023438 C 629.945312 243.5625 629.050781 244.097656 628.335938 244.8125 C 626.550781 246.421875 626.726562 248.386719 628.871094 249.636719 C 633.160156 252.136719 637.804688 253.386719 642.453125 254.460938 C 651.207031 256.785156 660.140625 258.570312 668.71875 261.25 C 673.363281 262.679688 676.042969 261.25 678.542969 257.855469 C 684.261719 250.351562 689.980469 242.847656 696.054688 235.878906 C 699.808594 231.410156 701.953125 226.765625 702.308594 221.046875 C 702.84375 208.183594 704.988281 195.316406 704.808594 182.273438 C 704.808594 175.128906 704.988281 167.980469 704.988281 160.832031 C 704.988281 157.617188 706.597656 153.328125 703.917969 151.542969 C 700.34375 149.398438 697.84375 153.6875 694.984375 155.472656 C 693.554688 156.367188 692.480469 157.4375 691.230469 158.6875 C 677.472656 171.734375 661.035156 179.59375 643.34375 185.3125 C 639.058594 186.742188 634.769531 188.171875 628.335938 190.316406 Z M 377.472656 204.609375 C 379.078125 204.609375 380.6875 204.609375 382.296875 204.609375 C 387.121094 204.609375 391.945312 204.609375 396.769531 204.609375 C 399.269531 204.609375 401.234375 203.359375 401.59375 200.679688 C 402.488281 192.996094 403.378906 185.3125 403.917969 177.449219 C 404.273438 172.625 402.488281 171.019531 397.664062 170.839844 C 393.554688 170.839844 389.265625 171.554688 385.15625 171.375 C 357.996094 169.945312 330.835938 171.375 303.679688 168.695312 C 297.601562 168.160156 291.347656 168.160156 285.273438 167.265625 C 280.09375 166.550781 274.910156 166.730469 269.730469 166.730469 C 267.585938 166.730469 265.796875 167.800781 265.261719 169.945312 C 263.832031 176.914062 262.046875 183.882812 262.761719 191.03125 C 263.117188 194.425781 264.726562 196.03125 268.476562 196.570312 C 272.945312 197.285156 277.410156 197.640625 281.878906 198.175781 C 284.738281 198.535156 287.597656 198.890625 290.632812 199.070312 C 293.671875 199.070312 294.566406 198.355469 294.742188 195.140625 C 294.742188 193.53125 294.742188 191.921875 294.742188 190.316406 C 294.742188 185.492188 294.742188 180.667969 295.101562 175.84375 C 295.101562 172.625 297.066406 170.660156 298.851562 171.195312 C 301.175781 171.910156 301.535156 173.875 301.535156 175.84375 C 301.890625 182.632812 302.25 189.421875 302.425781 196.210938 C 302.425781 199.785156 303.320312 200.679688 306.535156 201.75 C 309.753906 202.824219 312.96875 202.644531 316.183594 202.824219 C 327.441406 203 338.878906 202.824219 350.132812 203.714844 C 359.246094 204.609375 368.179688 204.789062 377.292969 204.964844 Z M 120.710938 182.988281 C 123.210938 187.8125 125.894531 191.386719 128.929688 194.601562 C 134.113281 199.964844 139.292969 205.144531 144.296875 210.683594 C 153.050781 220.15625 161.269531 230.160156 167.523438 241.597656 C 171.8125 249.101562 178.246094 254.460938 184.5 260 C 188.074219 263.214844 190.039062 263.214844 194.148438 260.714844 C 195.21875 260 196.292969 259.285156 197.363281 258.390625 C 208.085938 248.5625 219.878906 239.988281 231.132812 230.695312 C 235.066406 227.480469 238.640625 223.550781 242.210938 219.796875 C 244 218.011719 243.820312 215.867188 242.035156 214.792969 C 233.992188 210.148438 226.308594 204.609375 216.484375 203.714844 C 207.726562 202.824219 199.328125 200.855469 190.933594 198.175781 C 180.746094 194.960938 170.382812 192.636719 159.664062 191.746094 C 146.621094 190.671875 133.933594 187.8125 120.53125 182.988281 Z M 484.5 463.515625 C 486.644531 464.050781 488.429688 462.976562 490.039062 461.011719 C 492.363281 457.976562 494.863281 454.9375 497.1875 451.898438 C 502.1875 445.46875 507.550781 439.570312 513.804688 434.390625 C 519.699219 429.386719 525.953125 424.917969 532.027344 419.917969 C 535.246094 417.238281 538.105469 414.199219 540.960938 411.160156 C 542.570312 409.554688 541.855469 407.230469 539.890625 406.515625 C 537.390625 405.800781 534.886719 405.265625 532.386719 404.730469 C 519.164062 401.691406 505.761719 399.546875 493.433594 393.472656 C 493.078125 393.472656 492.898438 393.292969 492.539062 393.113281 C 490.039062 392.042969 487.539062 392.222656 485.214844 393.652344 C 477.53125 398.296875 469.492188 402.585938 462.523438 408.480469 C 458.949219 411.699219 454.304688 413.839844 451.625 417.949219 C 449.121094 421.882812 445.546875 424.5625 441.796875 427.242188 C 438.402344 429.742188 435.007812 432.066406 431.613281 434.566406 C 429.46875 436.175781 429.46875 437.964844 431.96875 439.035156 C 439.652344 442.609375 446.441406 447.433594 453.589844 451.722656 C 463.058594 457.4375 473.421875 461.011719 484.679688 463.515625 Z M 497.1875 562.5 C 497.1875 560.535156 496.292969 559.644531 494.863281 559.285156 C 486.109375 556.785156 477.890625 552.851562 468.957031 551.066406 C 465.738281 550.53125 462.878906 548.921875 459.84375 547.851562 C 452.339844 544.8125 445.546875 540.523438 439.117188 535.523438 C 433.753906 531.410156 433.398438 531.589844 428.214844 535.523438 C 419.105469 542.3125 409.992188 548.921875 399.808594 554.105469 C 396.054688 556.070312 393.015625 559.105469 390.15625 562.144531 C 387.835938 564.644531 387.835938 566.253906 390.15625 568.933594 C 391.945312 571.257812 393.910156 573.402344 396.054688 575.367188 C 406.238281 584.835938 418.210938 591.089844 432.148438 592.699219 C 438.042969 593.414062 443.761719 594.308594 449.121094 596.808594 C 454.480469 599.308594 458.949219 598.417969 463.417969 594.484375 C 469.847656 588.945312 476.636719 584.121094 482.890625 578.40625 C 487.359375 574.292969 492.183594 570.363281 495.757812 565.183594 C 496.472656 564.109375 497.007812 563.039062 497.542969 562.324219 Z M 302.964844 532.839844 C 301.710938 533.378906 300.640625 533.554688 299.925781 533.914062 C 291.886719 538.023438 283.84375 542.3125 277.054688 548.386719 C 271.335938 553.566406 265.441406 558.570312 258.472656 562.144531 C 255.972656 563.394531 251.859375 564.289062 251.859375 567.148438 C 251.859375 570.898438 256.507812 570.722656 259.007812 572.6875 C 260.082031 573.578125 261.152344 574.117188 262.222656 574.652344 C 269.550781 578.761719 276.699219 583.230469 284.203125 586.800781 C 293.492188 591.269531 303.320312 594.664062 312.789062 598.773438 C 317.613281 600.917969 321.367188 600.023438 325.121094 596.628906 C 335.484375 586.980469 346.738281 578.046875 358.890625 570.542969 C 362.105469 568.578125 362.105469 566.613281 359.066406 564.824219 C 356.386719 563.039062 353.707031 561.25 350.847656 559.644531 C 336.734375 551.246094 322.4375 542.847656 308.324219 534.628906 C 306.714844 533.734375 304.75 533.199219 303.320312 532.664062 Z M 569.371094 583.40625 C 569.195312 578.40625 568.300781 576.796875 563.832031 575.546875 C 550.433594 571.972656 537.03125 568.578125 523.453125 565.183594 C 517.199219 563.574219 512.015625 565.183594 508.265625 570.722656 C 507.726562 571.4375 507.011719 572.152344 506.476562 573.042969 C 500.402344 580.726562 493.613281 587.339844 485.394531 592.878906 C 480.570312 596.09375 476.28125 600.203125 471.8125 603.777344 C 469.847656 605.382812 470.207031 607.171875 472.527344 608.242188 C 475.386719 609.671875 478.425781 610.921875 481.285156 612.351562 C 487.179688 615.210938 493.078125 617.890625 497.722656 622.359375 C 500.402344 625.039062 503.261719 625.21875 506.476562 624.144531 C 513.265625 622 520.414062 621.644531 527.5625 621.644531 C 532.386719 621.644531 537.210938 620.574219 541.855469 619.144531 C 547.753906 617.355469 553.292969 614.855469 559.1875 612.890625 C 562.582031 611.636719 564.726562 609.671875 565.261719 606.097656 C 566.511719 598.417969 567.941406 590.910156 569.195312 583.230469 Z M 579.734375 318.425781 C 577.054688 318.425781 574.734375 319.679688 572.945312 321.464844 C 570.445312 323.964844 568.121094 326.648438 565.621094 329.148438 C 562.761719 332.1875 560.082031 335.582031 556.863281 338.082031 C 548.289062 344.871094 539.53125 351.660156 530.421875 357.558594 C 522.023438 363.097656 514.519531 369.707031 507.191406 376.496094 C 502.011719 381.320312 502.546875 382.929688 509.515625 385.253906 C 510.410156 385.609375 511.300781 385.96875 512.195312 386.144531 C 523.808594 389.003906 535.421875 391.683594 547.039062 394.542969 C 550.789062 395.4375 553.292969 394.542969 555.433594 391.507812 C 559.546875 385.789062 564.90625 380.964844 570.265625 376.320312 C 576.164062 371.316406 582.058594 366.3125 588.3125 361.667969 C 590.8125 359.703125 593.136719 357.378906 595.28125 354.878906 C 600.820312 348.265625 606.359375 341.476562 611.898438 334.6875 C 616.722656 328.433594 616.722656 328.613281 609.753906 325.753906 C 600.820312 322 590.992188 321.109375 581.699219 318.25 C 581.164062 318.070312 580.449219 318.25 579.734375 318.25 Z M 414.636719 446.71875 C 413.386719 446.898438 411.597656 446.71875 410.347656 447.613281 C 405.347656 450.46875 400.164062 453.328125 396.410156 457.796875 C 389.265625 466.195312 381.9375 474.234375 373.183594 481.023438 C 371.039062 482.632812 371.21875 484.242188 373.539062 485.492188 C 379.257812 488.527344 385.332031 490.671875 390.695312 494.605469 C 396.769531 499.070312 403.558594 501.929688 410.527344 504.789062 C 416.246094 507.113281 421.960938 509.253906 427.679688 511.398438 C 431.96875 513.007812 432.503906 513.1875 435.183594 509.792969 C 442.152344 501.035156 450.730469 494.425781 460.019531 488.527344 C 465.203125 485.132812 470.027344 481.5625 475.03125 477.808594 C 476.996094 476.378906 476.636719 474.234375 474.316406 473.339844 C 470.027344 471.734375 465.917969 470.125 461.628906 468.695312 C 451.800781 465.480469 443.046875 459.582031 434.113281 454.582031 C 428.214844 451.183594 421.960938 448.503906 414.996094 446.71875 Z M 254.003906 50.050781 C 254.003906 50.050781 254.183594 50.050781 254.363281 50.050781 C 254.542969 45.941406 254.898438 41.65625 255.078125 37.546875 C 255.078125 33.613281 254.003906 32.183594 249.894531 32.542969 C 240.605469 33.4375 231.3125 34.6875 222.023438 36.117188 C 217.554688 36.832031 216.660156 38.082031 216.484375 42.726562 C 216.125 47.910156 216.304688 53.089844 216.125 58.273438 C 216.125 62.203125 215.589844 65.953125 213.800781 69.527344 C 213.625 69.886719 212.730469 70.421875 212.195312 70.421875 C 211.660156 70.421875 210.765625 70.066406 210.585938 69.527344 C 208.621094 65.417969 207.90625 60.953125 207.90625 56.304688 C 207.90625 52.195312 208.441406 47.910156 208.621094 43.800781 C 208.976562 40.046875 207.371094 38.4375 203.4375 38.972656 C 200.222656 39.332031 197.007812 40.046875 193.96875 40.582031 C 180.570312 43.085938 167.347656 45.585938 154.300781 49.339844 C 149.300781 50.765625 148.585938 51.660156 148.40625 56.84375 C 148.050781 65.597656 148.226562 74.351562 146.796875 82.929688 C 146.261719 85.789062 147.871094 87.394531 150.730469 86.683594 C 159.839844 84.894531 169.132812 82.929688 178.246094 81.144531 C 190.933594 78.640625 203.4375 75.246094 216.304688 73.816406 C 227.203125 72.566406 237.925781 70.421875 248.824219 68.636719 C 252.933594 67.921875 253.828125 67.027344 254.003906 62.917969 C 254.183594 58.808594 254.003906 54.519531 254.003906 50.410156 Z M 321.007812 616.460938 C 319.757812 617 318.152344 617.535156 316.898438 618.429688 C 312.433594 621.824219 307.074219 623.429688 301.890625 624.859375 C 297.246094 626.113281 292.601562 627.363281 287.953125 628.792969 C 285.632812 629.507812 285.09375 631.828125 287.0625 633.078125 C 297.246094 640.226562 307.25 648.265625 319.582031 651.664062 C 325.476562 653.269531 331.371094 655.414062 336.375 658.808594 C 347.273438 666.136719 360.140625 668.457031 371.753906 673.996094 C 374.253906 675.246094 376.578125 674.53125 378.542969 672.210938 C 385.332031 664.347656 392.125 656.664062 400.519531 650.410156 C 402.84375 648.625 402.488281 647.015625 399.628906 645.410156 C 395.695312 643.265625 391.410156 641.476562 387.65625 638.976562 C 380.152344 633.792969 371.753906 630.9375 363 628.253906 C 349.957031 624.503906 336.375 622.714844 324.046875 617 C 323.152344 616.640625 322.261719 616.640625 321.007812 616.285156 Z M 419.640625 523.90625 C 419.28125 523.191406 418.925781 522.476562 418.566406 522.300781 C 414.457031 520.511719 410.347656 518.546875 406.058594 517.117188 C 399.628906 514.972656 393.375 512.292969 387.65625 508.71875 C 378.902344 503.179688 369.253906 499.25 359.960938 494.78125 C 356.386719 492.996094 353.171875 493.175781 349.957031 495.496094 C 347.8125 497.105469 345.667969 498.355469 343.703125 500.144531 C 335.660156 507.113281 327.800781 514.257812 319.9375 521.40625 C 317.613281 523.371094 317.613281 525.515625 319.9375 526.945312 C 323.511719 529.269531 327.085938 531.410156 330.65625 533.378906 C 338.699219 538.023438 347.097656 542.3125 354.957031 547.492188 C 360.140625 550.886719 365.859375 553.210938 371.039062 556.25 C 373.539062 557.675781 376.042969 557.320312 378.1875 555.535156 C 379.4375 554.460938 380.6875 553.566406 381.761719 552.316406 C 386.40625 547.3125 392.125 543.742188 398.019531 540.167969 C 404.808594 536.058594 411.242188 531.054688 417.851562 526.410156 C 418.566406 525.871094 418.925781 524.980469 419.28125 524.265625 Z M 484.320312 45.585938 C 484.320312 50.050781 484.320312 54.699219 484.320312 59.164062 C 484.320312 62.382812 485.574219 63.632812 488.789062 64.527344 C 493.253906 65.597656 497.542969 66.3125 502.1875 66.492188 C 515.410156 67.207031 528.453125 68.8125 541.5 71.316406 C 549.71875 72.921875 558.117188 73.460938 566.511719 74.351562 C 569.730469 74.710938 570.625 73.636719 570.800781 70.601562 C 571.160156 63.273438 571.515625 55.769531 571.515625 48.445312 C 571.515625 37.367188 570.800781 36.292969 559.902344 34.863281 C 542.570312 32.722656 525.417969 30.753906 508.085938 28.96875 C 502.011719 28.253906 495.9375 28.253906 489.683594 27.898438 C 485.75 27.898438 484.679688 28.789062 484.5 33.078125 C 484.5 37.1875 484.5 41.476562 484.5 45.585938 Z M 609.753906 192.28125 C 609.394531 192.28125 607.429688 192.636719 605.464844 192.996094 C 590.992188 194.78125 577.414062 200.5 563.117188 203.179688 C 561.152344 203.539062 559.367188 204.429688 558.117188 205.859375 C 555.078125 209.613281 551.863281 213.363281 548.824219 217.117188 C 547.753906 218.367188 548.289062 220.332031 550.074219 221.046875 C 552.21875 221.941406 554.183594 222.835938 556.328125 223.550781 C 575.804688 230.339844 595.460938 237.128906 614.933594 243.917969 C 617.792969 244.992188 619.9375 243.917969 622.082031 242.308594 C 631.910156 234.449219 641.023438 225.695312 649.597656 216.402344 C 652.101562 213.722656 651.742188 212.113281 648.347656 210.503906 C 638.34375 205.859375 628.695312 200.855469 619.402344 194.78125 C 616.902344 193.175781 614.398438 191.921875 609.753906 192.28125 Z M 443.582031 612.890625 C 443.046875 612.175781 442.6875 611.101562 441.796875 610.746094 C 438.757812 608.957031 435.183594 608.242188 431.613281 607.707031 C 414.101562 605.207031 399.09375 597.703125 386.226562 585.550781 C 383.726562 583.050781 380.867188 580.90625 378.1875 578.582031 C 376.042969 576.617188 373.539062 576.4375 371.039062 578.046875 C 367.824219 580.011719 364.429688 582.15625 361.210938 584.300781 C 351.921875 590.195312 343.164062 596.808594 334.589844 603.777344 C 331.015625 606.636719 331.730469 609.316406 336.195312 610.566406 C 344.058594 612.710938 351.742188 614.675781 359.605469 616.640625 C 371.21875 619.679688 382.652344 622.539062 392.660156 629.863281 C 398.019531 633.972656 404.453125 636.652344 410.882812 638.796875 C 413.566406 639.691406 415.886719 639.691406 418.210938 638.082031 C 427.679688 632.1875 435.722656 625.039062 442.152344 615.925781 C 442.6875 615.210938 442.867188 614.140625 443.226562 613.066406 Z M 420.890625 24.5 C 413.207031 24.5 405.347656 24.5 397.664062 24.5 C 395.695312 24.5 393.730469 24.5 391.945312 24.679688 C 390.15625 24.859375 389.085938 26.109375 389.085938 28.074219 C 389.085938 36.472656 389.265625 44.871094 389.621094 53.269531 C 389.621094 57.199219 390.871094 58.09375 394.980469 58.808594 C 400.34375 59.703125 405.703125 60.59375 411.242188 60.59375 C 418.03125 60.59375 424.820312 61.488281 431.433594 61.84375 C 444.65625 62.738281 457.878906 62.558594 471.097656 62.917969 C 471.457031 62.917969 471.8125 62.917969 471.992188 62.917969 C 475.746094 62.382812 477.53125 60.953125 477.53125 57.378906 C 477.53125 48.980469 477.53125 40.582031 477.53125 32.183594 C 477.53125 28.433594 475.921875 27.183594 472.171875 26.644531 C 471.277344 26.644531 470.207031 26.644531 469.3125 26.46875 C 453.230469 26.109375 437.152344 23.964844 421.070312 24.5 Z M 408.917969 221.046875 C 409.457031 221.40625 409.8125 221.941406 410.347656 221.941406 C 422.675781 224.800781 433.039062 231.054688 442.332031 239.273438 C 447.15625 243.5625 452.515625 247.3125 458.234375 250.351562 C 466.8125 254.816406 475.921875 258.210938 484.679688 262.144531 C 487.714844 263.574219 490.21875 263.039062 492.539062 260.714844 C 497.1875 255.710938 501.832031 250.886719 506.65625 246.0625 C 513.089844 239.628906 519.699219 233.554688 526.132812 227.121094 C 529.527344 223.726562 529.347656 221.941406 525.597656 219.441406 C 522.378906 217.296875 518.984375 215.328125 515.769531 213.1875 C 513.445312 211.757812 511.125 211.042969 508.441406 211.398438 C 502.011719 212.292969 495.578125 213.1875 489.144531 213.902344 C 477.890625 215.328125 466.8125 217.296875 455.375 217.652344 C 444.117188 218.011719 432.863281 218.367188 421.605469 218.902344 C 417.496094 219.082031 413.207031 219.796875 409.097656 220.332031 C 409.097656 220.332031 408.917969 220.691406 408.742188 221.046875 Z M 206.476562 598.59375 C 206.476562 599.488281 207.371094 602.347656 207.726562 605.207031 C 208.441406 609.496094 210.585938 612.175781 214.875 613.425781 C 218.984375 614.675781 222.914062 616.105469 226.667969 617.714844 C 233.636719 620.394531 240.78125 621.824219 248.464844 622 C 252.574219 622 256.863281 622.539062 260.972656 623.253906 C 264.90625 623.96875 268.65625 624.144531 272.410156 623.074219 C 282.949219 619.859375 293.3125 616.640625 303.855469 613.425781 C 304.390625 613.246094 304.929688 612.710938 305.464844 612.351562 C 306.535156 611.636719 306.894531 609.671875 305.820312 609.136719 C 303.855469 608.066406 301.890625 606.8125 299.925781 606.097656 C 287.777344 601.632812 276.160156 596.273438 265.261719 588.945312 C 257.9375 584.121094 250.433594 579.832031 242.925781 575.1875 C 240.960938 573.9375 238.996094 573.042969 236.671875 574.292969 C 228.097656 578.761719 219.519531 583.230469 210.945312 587.875 C 207.371094 589.839844 206.121094 592.878906 206.476562 598.773438 Z M 268.121094 211.933594 C 268.121094 211.933594 268.121094 212.113281 268.121094 212.292969 C 267.226562 212.292969 266.15625 212.292969 265.261719 212.292969 C 263.117188 212.292969 261.332031 213.1875 260.796875 215.328125 C 260.257812 217.296875 262.046875 218.1875 263.476562 218.902344 C 269.191406 221.761719 272.945312 226.40625 276.519531 231.589844 C 280.628906 237.84375 284.023438 244.453125 289.742188 249.457031 C 296.53125 255.53125 304.390625 260 312.253906 264.644531 C 315.648438 266.789062 319.042969 266.433594 321.902344 263.574219 C 327.085938 258.75 332.445312 254.101562 337.449219 248.921875 C 343.34375 242.847656 348.882812 236.59375 354.421875 230.339844 C 356.746094 227.660156 360.140625 225.871094 360.855469 222.121094 C 357.996094 218.726562 353.886719 219.441406 350.132812 219.082031 C 348.167969 218.902344 346.203125 219.082031 344.238281 219.082031 C 338.164062 219.082031 331.910156 219.261719 325.832031 217.832031 C 324.046875 217.296875 321.902344 217.472656 320.117188 217.652344 C 312.613281 218.1875 305.285156 217.652344 297.960938 216.042969 C 292.601562 214.972656 287.0625 214.257812 281.699219 213.542969 C 277.234375 213.007812 272.765625 212.472656 268.300781 211.933594 Z M 453.410156 186.207031 C 453.410156 186.207031 453.410156 186.207031 453.230469 186.207031 C 453.230469 190.136719 453.230469 193.886719 453.230469 197.820312 C 453.230469 200.5 455.019531 202.109375 457.519531 202.109375 C 459.84375 202.109375 461.988281 202.109375 464.308594 201.75 C 471.097656 200.855469 477.710938 199.605469 484.5 198.714844 C 501.832031 196.390625 519.164062 194.601562 536.136719 190.671875 C 539.355469 189.957031 541.320312 188.707031 542.214844 185.492188 C 543.640625 179.058594 544.179688 172.625 543.820312 166.195312 C 543.640625 161.90625 541.855469 160.65625 537.390625 161.191406 C 528.8125 162.261719 520.058594 163.691406 511.480469 164.40625 C 495.398438 165.835938 479.320312 167.085938 463.238281 168.335938 C 461.628906 168.335938 460.019531 168.515625 458.414062 168.875 C 455.554688 169.410156 453.765625 171.195312 453.589844 174.234375 C 453.589844 178.164062 453.589844 181.917969 453.589844 185.847656 Z M 703.382812 109.015625 L 703.738281 109.015625 C 703.738281 106.695312 704.097656 104.550781 704.097656 102.226562 C 704.097656 101.691406 703.382812 100.976562 703.023438 100.976562 C 702.488281 100.976562 701.773438 101.15625 701.414062 101.691406 C 698.734375 105.800781 695.699219 109.550781 692.304688 112.949219 C 685.335938 119.914062 676.757812 124.738281 668.003906 128.492188 C 661.929688 131.171875 658.53125 134.390625 659.425781 141.535156 C 660.140625 147.074219 658.355469 152.433594 656.746094 157.796875 C 656.03125 159.941406 654.960938 162.082031 652.816406 163.15625 C 651.742188 163.871094 650.492188 164.226562 649.0625 163.511719 C 647.8125 162.796875 646.917969 161.726562 647.097656 160.476562 C 647.097656 158.511719 647.632812 156.722656 648.167969 154.757812 C 649.242188 150.46875 650.671875 146.003906 651.742188 141.714844 C 652.636719 137.605469 650.851562 135.996094 647.097656 137.070312 C 636.199219 140.464844 625.476562 143.859375 614.757812 147.253906 C 612.613281 147.96875 611.71875 149.398438 611.898438 151.71875 C 612.253906 156.902344 612.613281 162.082031 612.96875 167.265625 C 613.683594 176.199219 612.253906 177.628906 624.226562 176.019531 C 629.945312 175.304688 635.484375 173.160156 641.199219 171.910156 C 656.566406 168.515625 670.324219 161.726562 682.65625 151.71875 C 685.335938 149.578125 688.550781 147.609375 691.589844 146.003906 C 706.597656 137.425781 705.347656 141 704.273438 120.808594 C 704.273438 119.914062 703.917969 118.84375 703.738281 117.949219 C 703.558594 115.089844 703.382812 112.234375 703.203125 109.195312 Z M 648.347656 71.136719 C 648.347656 68.277344 648.347656 65.242188 648.347656 62.382812 C 648.347656 59.164062 646.382812 57.019531 643.34375 55.949219 C 642.09375 55.589844 640.84375 55.054688 639.59375 54.699219 C 622.441406 48.980469 604.75 44.691406 587.238281 40.582031 C 585.273438 40.226562 583.488281 40.046875 581.523438 39.867188 C 579.019531 39.867188 577.949219 40.761719 578.304688 43.441406 C 579.378906 51.839844 579.734375 60.238281 577.949219 68.457031 C 577.769531 69.707031 577.769531 70.957031 577.949219 72.386719 C 577.949219 75.425781 579.199219 77.210938 582.414062 77.925781 C 591.171875 79.890625 600.105469 81.855469 608.859375 83.644531 C 609.394531 83.644531 610.109375 83.644531 610.824219 83.644531 C 613.503906 83.644531 615.113281 82.394531 615.472656 79.714844 C 615.648438 78.105469 615.648438 76.496094 615.828125 74.890625 C 616.722656 68.097656 617.617188 61.488281 618.6875 54.699219 C 618.6875 53.984375 619.9375 52.910156 620.652344 52.910156 C 621.367188 52.910156 622.441406 53.804688 622.796875 54.519531 C 624.226562 57.558594 624.046875 60.773438 623.332031 63.988281 C 622.261719 70.066406 622.082031 76.140625 620.296875 82.214844 C 619.757812 84 620.472656 85.609375 622.261719 86.144531 C 629.230469 88.824219 636.199219 91.328125 643.167969 93.648438 C 644.953125 94.1875 646.382812 93.113281 646.5625 91.148438 C 647.097656 84.359375 649.242188 77.746094 648.527344 70.957031 Z M 257.9375 169.765625 C 258.113281 166.910156 256.863281 165.300781 253.113281 164.765625 C 249.539062 164.050781 246.144531 163.511719 242.570312 163.15625 C 228.097656 161.726562 213.800781 159.402344 199.328125 156.902344 C 191.289062 155.472656 183.425781 154.042969 175.566406 152.613281 C 170.917969 151.898438 169.847656 152.613281 169.847656 157.617188 C 169.847656 162.796875 169.847656 167.980469 169.847656 173.160156 C 169.847656 176.914062 171.277344 178.164062 175.03125 179.238281 C 185.035156 181.738281 195.042969 184.417969 205.226562 186.382812 C 211.835938 187.8125 218.625 188.351562 225.417969 189.242188 C 233.816406 190.316406 242.035156 191.386719 250.253906 193.351562 C 252.574219 193.886719 254.003906 192.996094 254.542969 190.671875 C 255.792969 184.0625 256.863281 177.273438 258.113281 169.765625 Z M 262.761719 50.050781 L 262.402344 50.050781 C 262.402344 50.765625 262.402344 51.304688 262.402344 52.019531 C 262.402344 68.457031 259.367188 67.5625 278.304688 65.777344 C 278.664062 65.777344 278.839844 65.777344 279.199219 65.597656 C 287.417969 64.167969 295.816406 63.097656 304.214844 63.097656 C 311.003906 63.097656 317.792969 62.738281 324.582031 62.382812 C 327.976562 62.203125 329.40625 60.773438 329.585938 57.558594 C 329.945312 49.160156 330.121094 40.761719 328.335938 32.363281 C 327.261719 27.359375 326.371094 26.644531 321.1875 26.46875 C 319.9375 26.46875 318.507812 26.46875 317.257812 26.46875 C 303.679688 27.359375 290.097656 28.433594 276.699219 29.503906 C 273.839844 29.683594 270.980469 30.039062 267.941406 30.578125 C 264.191406 31.113281 262.9375 32.542969 262.761719 36.472656 C 262.582031 40.941406 262.761719 45.585938 262.761719 50.050781 Z M 143.582031 61.128906 C 143.582031 59.164062 143.582031 58.628906 143.582031 57.914062 C 143.582031 53.449219 141.972656 52.195312 137.507812 53.625 C 123.210938 57.914062 109.277344 63.273438 96.410156 70.78125 C 90.871094 73.996094 85.511719 77.925781 81.757812 83.285156 C 78.1875 88.46875 76.578125 93.648438 81.582031 99.1875 C 82.652344 100.261719 82.832031 102.226562 83.726562 103.476562 C 88.550781 109.015625 92.480469 111.339844 99.628906 108.660156 C 112.671875 103.65625 124.640625 96.332031 137.507812 91.328125 C 139.828125 90.433594 141.082031 88.46875 141.257812 86.144531 C 141.796875 77.390625 141.972656 68.636719 143.582031 61.308594 Z M 69.429688 105.800781 C 68.894531 110.445312 69.964844 114.019531 69.429688 117.414062 C 68.714844 121.882812 69.074219 126.527344 68.539062 130.992188 C 68 136.175781 70.324219 139.570312 74.789062 141.894531 C 80.328125 144.753906 85.511719 147.789062 90.335938 151.71875 C 98.554688 158.152344 107.667969 163.15625 117.136719 167.085938 C 118.566406 167.800781 120.175781 168.335938 121.785156 168.695312 C 123.570312 169.050781 125 168.335938 125.714844 166.550781 C 126.429688 164.765625 126.964844 162.796875 127.324219 161.011719 C 128.035156 155.652344 128.75 150.113281 129.289062 144.574219 C 129.644531 141.894531 128.214844 140.285156 125.894531 139.390625 C 122.320312 137.960938 118.566406 136.710938 114.992188 135.28125 C 103.558594 130.816406 92.300781 125.8125 82.472656 118.308594 C 80.152344 116.519531 78.007812 114.734375 75.863281 112.589844 C 73.898438 110.625 72.109375 108.480469 69.429688 105.621094 Z M 361.75 24.859375 C 360.496094 24.859375 359.246094 24.859375 357.816406 24.859375 C 352.097656 25.039062 346.203125 25.214844 340.484375 25.753906 C 335.839844 26.289062 334.230469 28.253906 335.125 33.078125 C 336.019531 38.796875 336.554688 44.511719 336.554688 50.410156 C 336.554688 52.734375 336.554688 54.878906 336.554688 57.199219 C 336.910156 61.488281 338.519531 62.917969 342.988281 62.203125 C 349.957031 60.953125 357.101562 61.308594 364.070312 60.773438 C 368.539062 60.414062 373.003906 59.878906 377.472656 58.988281 C 381.222656 58.273438 382.296875 57.199219 382.476562 53.089844 C 383.011719 45.40625 383.191406 37.722656 383.546875 30.039062 C 383.546875 26.824219 382.476562 25.214844 379.078125 25.039062 C 373.363281 24.859375 367.464844 25.039062 361.75 25.039062 Z M 605.464844 164.226562 C 605.464844 160.296875 605.464844 158.6875 605.464844 157.082031 C 605.109375 152.613281 603.140625 150.828125 598.496094 151.007812 C 596.53125 151.007812 594.566406 151.542969 592.777344 151.898438 C 585.453125 153.328125 578.304688 154.9375 570.980469 156.367188 C 565.621094 157.4375 560.082031 158.152344 554.71875 159.046875 C 551.863281 159.582031 550.789062 161.011719 551.148438 163.871094 C 552.039062 169.945312 551.683594 176.019531 550.789062 182.273438 C 550.074219 187.636719 552.039062 189.0625 557.578125 188.351562 C 571.695312 186.5625 585.273438 181.558594 599.210938 178.878906 C 602.070312 178.34375 603.679688 176.378906 604.214844 173.519531 C 604.75 169.765625 605.285156 165.835938 605.464844 164.226562 Z M 428.574219 170.304688 L 428.574219 170.660156 C 424.644531 170.660156 420.890625 170.660156 416.960938 170.660156 C 412.492188 170.839844 411.957031 171.375 411.597656 175.664062 C 410.707031 183.347656 410.882812 191.207031 409.457031 198.890625 C 408.5625 203 410.707031 204.964844 415.171875 204.253906 C 421.960938 203 428.753906 203.179688 435.542969 203 C 437.152344 203 438.757812 203 440.367188 202.644531 C 442.867188 202.285156 444.476562 200.855469 444.832031 198.355469 C 446.261719 191.03125 447.15625 183.703125 446.621094 176.199219 C 446.441406 172.449219 444.832031 170.839844 441.261719 170.660156 C 437.152344 170.480469 432.863281 170.660156 428.574219 170.660156 Z M 689.621094 90.613281 C 689.980469 85.429688 687.480469 81.144531 683.546875 77.390625 C 677.652344 71.851562 670.503906 67.921875 663.355469 64.167969 C 659.246094 61.84375 657.101562 62.917969 656.925781 67.5625 C 656.746094 73.460938 656.566406 79.175781 655.316406 84.894531 C 654.601562 88.109375 653.886719 91.148438 652.992188 94.363281 C 652.277344 96.867188 652.636719 98.832031 655.136719 100.261719 C 659.960938 103.121094 664.785156 105.441406 669.96875 107.230469 C 673.183594 108.300781 676.402344 107.945312 679.082031 105.800781 C 681.941406 103.65625 684.621094 101.332031 686.765625 98.472656 C 688.371094 96.332031 689.265625 94.007812 689.445312 90.96875 Z M 446.976562 653.804688 C 451.085938 652.378906 455.554688 651.125 459.664062 649.339844 C 468.597656 645.585938 476.996094 640.761719 482.714844 632.363281 C 484.144531 630.398438 483.964844 628.792969 481.640625 627.71875 C 474.316406 624.324219 466.8125 621.109375 459.484375 617.890625 C 457.519531 617 455.734375 617.714844 454.125 618.785156 C 453.054688 619.5 452.160156 620.394531 451.265625 621.464844 C 446.261719 628.433594 440.007812 633.792969 433.039062 638.796875 C 431.96875 639.511719 431.074219 640.40625 430.003906 641.300781 C 428.574219 642.550781 428.574219 644.515625 430.183594 645.410156 C 434.648438 648.089844 439.117188 650.589844 443.761719 652.914062 C 444.65625 653.269531 445.546875 653.269531 446.800781 653.628906 Z M 163.058594 164.40625 C 163.058594 164.40625 163.058594 164.40625 163.238281 164.40625 C 163.238281 161.546875 163.238281 158.511719 163.238281 155.652344 C 163.058594 151.007812 161.808594 149.398438 157.339844 147.96875 C 152.160156 146.359375 146.796875 145.109375 141.4375 143.859375 C 138.578125 143.144531 136.433594 144.574219 135.542969 147.609375 C 135.363281 148.503906 135.183594 149.578125 135.003906 150.46875 C 134.648438 156.1875 134.289062 162.082031 133.753906 167.800781 C 133.574219 170.480469 135.003906 172.089844 137.328125 172.984375 C 144.296875 175.664062 151.800781 176.378906 159.128906 176.558594 C 161.269531 176.558594 162.878906 175.484375 162.878906 172.984375 C 162.878906 170.125 162.878906 167.265625 162.878906 164.226562 Z M 198.972656 551.601562 C 199.867188 556.960938 200.757812 563.574219 201.832031 570.363281 C 202.367188 573.9375 202.902344 577.332031 203.4375 580.90625 C 203.976562 583.230469 205.761719 584.121094 207.90625 582.871094 C 214.515625 578.761719 221.128906 574.652344 227.5625 570.542969 C 229.882812 568.933594 230.0625 566.433594 227.5625 565.183594 C 220.234375 560.894531 213.980469 555.175781 207.550781 549.996094 C 205.761719 548.566406 203.796875 547.3125 202.011719 546.242188 C 200.757812 545.527344 199.152344 546.242188 199.152344 547.492188 C 199.152344 548.386719 199.152344 549.457031 199.152344 551.78125 Z M 435.363281 658.988281 C 431.074219 655.949219 426.964844 655.234375 423.214844 653.628906 C 417.675781 651.304688 412.671875 652.199219 407.667969 655.59375 C 398.914062 661.667969 390.871094 668.816406 383.011719 675.785156 C 382.296875 676.5 381.402344 677.390625 382.117188 678.285156 C 382.832031 679.179688 383.90625 680.070312 384.976562 680.609375 C 386.585938 681.324219 388.015625 680.609375 389.441406 679.714844 C 400.34375 674.175781 411.777344 669.53125 423.390625 665.777344 C 427.324219 664.527344 431.253906 662.742188 435.363281 658.988281 Z M 545.25 206.753906 C 544.714844 206.394531 544.355469 205.679688 543.820312 205.679688 C 540.070312 206.039062 536.136719 206.394531 532.386719 207.109375 C 530.0625 207.648438 526.488281 206.753906 526.132812 209.96875 C 525.953125 212.292969 529.527344 212.292969 531.3125 213.542969 C 532.027344 214.078125 533.101562 214.257812 533.992188 214.792969 C 535.960938 215.6875 537.746094 215.328125 539.355469 213.902344 C 541.320312 212.113281 542.929688 210.328125 544.714844 208.363281 C 545.070312 208.003906 545.070312 207.289062 545.25 206.574219 Z M 123.035156 389.898438 C 122.675781 390.257812 122.320312 390.433594 121.960938 390.792969 C 122.496094 391.863281 123.035156 393.113281 123.75 394.007812 C 125.714844 396.332031 125.714844 400.261719 129.464844 400.976562 C 131.074219 396.867188 127.144531 395.257812 125.714844 392.398438 C 125.179688 391.328125 123.925781 390.792969 123.035156 389.898438 Z M 123.035156 389.898438 " fill-opacity="1" fill-rule="nonzero"/></g></svg>