<svg width="356" height="232" viewBox="0 0 356 232" fill="none" xmlns="http://www.w3.org/2000/svg">
<mask id="mask0_1069_1711" style="mask-type:luminance" maskUnits="userSpaceOnUse" x="0" y="0" width="356" height="232">
<path d="M355.52 0H0V231.627H355.52V0Z" fill="white" style="fill:white;fill-opacity:1;"/>
</mask>
<g mask="url(#mask0_1069_1711)">
<mask id="mask1_1069_1711" style="mask-type:luminance" maskUnits="userSpaceOnUse" x="4" y="40" width="113" height="168">
<path d="M4.31348 40.7363H116.36V207.534H4.31348V40.7363Z" fill="white" style="fill:white;fill-opacity:1;"/>
</mask>
<g mask="url(#mask1_1069_1711)">
<path d="M160.169 70.9311C164.041 70.9311 164.041 64.9343 160.169 64.9343C156.318 64.9343 156.318 70.9311 160.169 70.9311ZM62.8935 70.0053C66.7651 70.0053 66.7651 64.0084 62.8935 64.0084C59.0429 64.0084 59.0218 70.0053 62.8935 70.0053ZM47.7645 92.8145C51.6362 92.8145 51.6362 86.8176 47.7645 86.8176C43.9139 86.8176 43.9139 92.8145 47.7645 92.8145ZM91.5312 80.6103C95.3818 80.6103 95.4029 74.6134 91.5312 74.6134C87.6595 74.6134 87.6595 80.6103 91.5312 80.6103ZM101.757 55.8022C105.629 55.8022 105.629 49.8053 101.757 49.8053C97.9068 49.8053 97.9068 55.8022 101.757 55.8022ZM153.436 93.9717C157.286 93.9717 157.307 87.9749 153.436 87.9749C149.564 87.9749 149.564 93.9717 153.436 93.9717ZM134.12 62.3251C137.97 62.3251 137.991 56.3282 134.12 56.3282C130.248 56.3282 130.248 62.3251 134.12 62.3251ZM110.3 46.7122C62.157 46.7122 22.9985 70.847 22.9985 100.516V103.083C22.9985 106.092 25.4183 108.512 28.4272 108.512H192.216C195.203 108.512 197.623 106.092 197.623 103.083V100.516C197.623 70.847 158.465 46.7122 110.321 46.7122H110.3ZM192.195 114.508H28.4272C22.1147 114.508 17.0016 109.395 17.0016 103.083V100.516C17.0016 84.2715 26.8912 69.1215 44.8608 57.8222C62.3885 46.7963 85.6185 40.7363 110.3 40.7363C135.003 40.7363 158.233 46.7963 175.761 57.8222C193.731 69.1215 203.62 84.2715 203.62 100.516V103.083C203.62 109.395 198.486 114.508 192.195 114.508ZM207.934 124.861C208.333 124.545 208.186 124.672 207.744 124.966C207.113 125.366 206.482 125.766 205.83 126.144C203.852 127.197 201.726 127.996 199.496 128.354C196.213 128.901 192.847 128.396 189.838 126.944C186.45 125.303 183.799 122.567 180.285 121.052C172.983 117.938 164.125 119.453 158.17 124.756C158.107 124.798 158.002 124.882 157.876 124.966C157.244 125.366 156.613 125.766 155.961 126.144C153.983 127.197 151.837 127.996 149.627 128.354C146.345 128.901 142.978 128.396 139.969 126.944C136.581 125.303 133.93 122.567 130.416 121.052C123.115 117.938 114.256 119.453 108.301 124.756C108.238 124.798 108.133 124.882 108.007 124.966C107.376 125.366 106.744 125.766 106.071 126.144C104.114 127.197 101.968 127.996 99.7585 128.354C96.476 128.901 93.1093 128.396 90.1004 126.944C86.6916 125.303 84.0614 122.567 80.5474 121.052C73.2249 117.938 64.3874 119.453 58.4326 124.756C58.3695 124.798 58.2643 124.882 58.1381 124.966C57.5068 125.366 56.8756 125.766 56.2022 126.144C54.2453 127.197 52.0991 127.996 49.8897 128.354C46.5862 128.901 43.2406 128.396 40.2316 126.944C36.8439 125.303 34.1926 122.567 30.6787 121.052C23.3141 117.917 14.3924 119.474 8.43764 124.861C5.57598 127.449 9.8264 131.678 12.6881 129.09C14.5187 127.449 17.5697 126.06 20.221 125.597C27.9433 124.209 32.4251 130.184 38.8849 132.899C46.7124 136.16 55.9918 134.33 62.5568 129.09C64.3874 127.449 67.4385 126.06 70.0897 125.597C77.812 124.209 82.2939 130.184 88.7537 132.899C96.6022 136.16 105.861 134.33 112.426 129.09C114.256 127.449 117.307 126.06 119.958 125.597C127.681 124.209 132.163 130.184 138.622 132.899C146.471 136.16 155.729 134.33 162.315 129.09C164.125 127.449 167.176 126.06 169.827 125.597C177.55 124.209 182.031 130.184 188.512 132.899C196.34 136.16 205.619 134.33 212.184 129.09C215.193 126.692 210.922 122.462 207.934 124.861ZM14.5397 145.44C12.2041 145.44 10.3104 147.333 10.3104 149.669V153.583C10.3104 155.918 12.2041 157.812 14.5397 157.812H206.082C208.418 157.812 210.311 155.918 210.311 153.583V149.669C210.311 147.333 208.418 145.44 206.082 145.44H14.5397ZM206.082 163.809H14.5397C8.90056 163.809 4.31348 159.222 4.31348 153.583V149.669C4.31348 144.03 8.90056 139.443 14.5397 139.443H206.082C211.721 139.443 216.308 144.03 216.308 149.669V153.583C216.308 159.222 211.721 163.809 206.082 163.809ZM28.4272 175.719C25.4183 175.719 22.9985 178.138 22.9985 181.126V184.893C22.9985 194.067 30.4683 201.537 39.6424 201.537H180.958C190.153 201.537 197.623 194.067 197.623 184.893V181.126C197.623 178.138 195.182 175.719 192.195 175.719H28.4272ZM180.958 207.534H39.6635C27.1647 207.534 17.0016 197.37 17.0016 184.893V181.126C17.0016 174.835 22.1147 169.722 28.4272 169.722H192.216C198.507 169.722 203.62 174.835 203.62 181.126V184.893C203.62 197.37 193.457 207.534 180.979 207.534" fill="#FF8200" style="fill:#FF8200;fill:color(display-p3 1.0000 0.5098 0.0000);fill-opacity:1;"/>
</g>
<mask id="mask2_1069_1711" style="mask-type:luminance" maskUnits="userSpaceOnUse" x="96" y="0" width="259" height="230">
<path d="M96.96 0.210938H354.657V229.039H96.96V0.210938Z" fill="white" style="fill:white;fill-opacity:1;"/>
</mask>
<g mask="url(#mask2_1069_1711)">
<mask id="mask3_1069_1711" style="mask-type:luminance" maskUnits="userSpaceOnUse" x="96" y="0" width="260" height="232">
<path d="M355.52 0H96.96V231.627H355.52V0Z" fill="white" style="fill:white;fill-opacity:1;"/>
</mask>
<g mask="url(#mask3_1069_1711)">
<path d="M129.539 45.4647C124.867 45.4647 121.248 47.0429 118.681 50.1781C117.44 51.651 116.514 53.3554 115.904 55.3122C115.23 57.2902 114.894 59.3522 114.894 61.5406C114.894 63.0556 115.104 64.7389 115.567 66.5906C116.009 68.4422 116.787 70.2097 117.924 71.8931C118.976 73.5343 120.47 74.902 122.384 76.0172C124.236 77.1535 126.614 77.7006 129.539 77.7006H135.767C136.777 77.7006 137.64 78.0793 138.376 78.7947C139.091 79.5312 139.47 80.3939 139.47 81.4039V84.6864C139.47 85.6964 139.091 86.5802 138.376 87.2956C137.64 88.032 136.777 88.3897 135.767 88.3897H129.539C125.372 88.3897 121.732 87.6112 118.597 86.0331C115.399 84.5181 112.747 82.4981 110.685 79.9731C108.497 77.4481 106.856 74.5864 105.804 71.3881C104.73 68.1897 104.204 64.9072 104.204 61.5406C104.204 58.0687 104.73 54.7652 105.804 51.6089C106.814 48.5368 108.35 45.7804 110.433 43.3606C112.789 40.4989 115.588 38.3527 118.849 36.8797C122.048 35.4279 125.604 34.6914 129.539 34.6914H135.767C136.777 34.6914 137.64 35.0702 138.376 35.7856C139.091 36.522 139.47 37.3847 139.47 38.3947V41.6772C139.47 42.7504 139.091 43.6552 138.376 44.3706C137.64 45.107 136.777 45.4647 135.767 45.4647H129.539Z" fill="#FF8200" style="fill:#FF8200;fill:color(display-p3 1.0000 0.5098 0.0000);fill-opacity:1;"/>
<path d="M180.228 84.6864C180.502 85.0862 180.649 85.507 180.649 85.9489C180.649 86.4118 180.565 86.7906 180.397 87.1272C180.165 87.527 179.85 87.8427 179.471 88.0531C179.134 88.2845 178.734 88.3897 178.292 88.3897H171.307C170.402 88.3897 169.707 88.032 169.202 87.2956L161.796 75.3439C161.291 74.5654 160.617 74.1656 159.776 74.1656C159.102 74.1656 158.534 74.4181 158.092 74.9231C157.587 75.386 157.335 75.9331 157.335 76.6064V85.9489C157.335 86.6222 157.103 87.2114 156.662 87.7164C156.157 88.1793 155.588 88.3897 154.978 88.3897H149.087C148.413 88.3897 147.824 88.1793 147.319 87.7164C146.856 87.2114 146.646 86.6222 146.646 85.9489V37.1322C146.646 36.4589 146.856 35.8697 147.319 35.3647C147.824 34.9229 148.413 34.6914 149.087 34.6914H162.974C165.836 34.6914 168.466 35.2595 170.886 36.3747C173.285 37.511 175.347 39.1102 177.03 41.1722C178.545 42.9818 179.681 45.0018 180.481 47.2322C181.196 49.5889 181.575 52.0087 181.575 54.4706C181.575 56.9956 181.196 59.3943 180.481 61.6247C179.681 63.9393 178.545 65.9804 177.03 67.7689C176.23 68.7789 175.262 69.7468 174.084 70.6306C173.579 71.0304 173.263 71.5354 173.158 72.1456C173.032 72.7768 173.158 73.3239 173.495 73.8289L180.228 84.6864ZM168.782 60.9514C169.455 60.1097 169.981 59.1418 170.381 58.0056C170.717 56.9535 170.886 55.7752 170.886 54.4706C170.886 54.2602 170.823 53.671 170.717 52.7031C170.591 51.6931 170.297 50.662 169.792 49.5889C169.287 48.5368 168.529 47.5479 167.519 46.6431C166.446 45.8014 164.931 45.3806 162.974 45.3806H159.776C159.102 45.3806 158.534 45.612 158.092 46.0539C157.587 46.5589 157.335 47.1481 157.335 47.8214V61.1197C157.335 61.751 157.587 62.2981 158.092 62.8031C158.534 63.266 159.102 63.4764 159.776 63.4764H162.974C165.541 63.4764 167.477 62.6347 168.782 60.9514Z" fill="#FF8200" style="fill:#FF8200;fill:color(display-p3 1.0000 0.5098 0.0000);fill-opacity:1;"/>
<path d="M227.638 85.9489C227.807 86.5802 227.723 87.1272 227.386 87.6322C226.986 88.1372 226.46 88.3897 225.787 88.3897H218.801C218.338 88.3897 217.917 88.2635 217.538 87.9689C217.202 87.6954 216.949 87.3377 216.781 86.8747L214.424 78.6264C214.256 78.2477 214.003 77.911 213.667 77.6164C213.33 77.3429 212.909 77.1956 212.404 77.1956H200.789C200.326 77.1956 199.906 77.3429 199.527 77.6164C199.19 77.911 198.938 78.2477 198.769 78.6264L196.497 86.8747C196.328 87.3377 196.076 87.6954 195.739 87.9689C195.339 88.2635 194.919 88.3897 194.477 88.3897H187.407C186.776 88.3897 186.271 88.1372 185.892 87.6322C185.492 87.1272 185.387 86.5802 185.555 85.9489L199.948 36.2064C200.116 35.7645 200.368 35.4068 200.705 35.1122C201.042 34.8387 201.463 34.6914 201.968 34.6914H211.31C211.752 34.6914 212.173 34.8387 212.573 35.1122C212.909 35.4068 213.162 35.7645 213.33 36.2064L227.638 85.9489ZM210.132 66.5064C210.3 66.5064 210.468 66.4222 210.637 66.2539C210.742 66.1487 210.763 66.0014 210.721 65.8331L207.186 53.5447C207.123 53.2712 206.954 53.1239 206.681 53.1239C206.344 53.1239 206.134 53.2712 206.092 53.5447L202.557 65.8331C202.494 66.0014 202.515 66.1487 202.641 66.2539C202.746 66.4222 202.893 66.5064 203.062 66.5064H210.132Z" fill="#FF8200" style="fill:#FF8200;fill:color(display-p3 1.0000 0.5098 0.0000);fill-opacity:1;"/>
<path d="M244.718 76.2697C244.55 76.6064 244.571 76.922 244.802 77.1956C244.971 77.5322 245.244 77.7006 245.644 77.7006H259.952C260.668 77.7006 261.299 77.932 261.804 78.3739C262.309 78.8789 262.561 79.5102 262.561 80.2256V85.8647C262.561 86.6012 262.309 87.1904 261.804 87.6322C261.299 88.1372 260.668 88.3897 259.952 88.3897H231.083C230.62 88.3897 230.199 88.2845 229.821 88.0531C229.484 87.8427 229.189 87.5481 228.979 87.2114C228.747 86.8327 228.6 86.4329 228.558 86.0331C228.495 85.6543 228.579 85.2335 228.811 84.7706L246.906 46.8956C247.075 46.5589 247.075 46.2222 246.906 45.8856C246.675 45.612 246.359 45.4647 245.981 45.4647H230.999C230.262 45.4647 229.673 45.2122 229.231 44.7072C228.726 44.2022 228.474 43.592 228.474 42.8556V37.2164C228.474 36.501 228.726 35.8697 229.231 35.3647C229.673 34.9229 230.262 34.6914 230.999 34.6914H260.626C261.067 34.6914 261.467 34.8177 261.804 35.0281C262.183 35.2595 262.498 35.5331 262.73 35.8697C262.898 36.2064 263.024 36.5852 263.151 36.9639C263.151 37.4268 263.024 37.8687 262.814 38.3106L244.718 76.2697Z" fill="#FF8200" style="fill:#FF8200;fill:color(display-p3 1.0000 0.5098 0.0000);fill-opacity:1;"/>
<path d="M302.962 35.4492C303.509 35.4492 303.93 35.6807 304.225 36.1226C304.561 36.6276 304.561 37.1326 304.225 37.6376L289.664 63.3926C289.496 63.5609 289.411 63.7923 289.411 64.0659V86.9592C289.411 87.359 289.264 87.6957 288.991 87.9692C288.696 88.2638 288.359 88.3901 287.981 88.3901H280.237C279.838 88.3901 279.48 88.2638 279.143 87.9692C278.849 87.6957 278.722 87.359 278.722 86.9592V64.0659C278.722 63.8555 278.659 63.624 278.554 63.3926L263.993 37.6376C263.699 37.1326 263.699 36.6276 263.993 36.1226C264.267 35.6807 264.688 35.4492 265.256 35.4492H274.177C274.724 35.4492 275.145 35.6807 275.44 36.1226L283.52 50.2626C283.625 50.5571 283.856 50.6834 284.193 50.6834C284.404 50.6834 284.614 50.5571 284.782 50.2626L292.778 36.1226C293.052 35.6807 293.451 35.4492 293.956 35.4492H302.962Z" fill="#FF8200" style="fill:#FF8200;fill:color(display-p3 1.0000 0.5098 0.0000);fill-opacity:1;"/>
<path d="M129.539 105.291C124.867 105.291 121.248 106.869 118.681 110.004C117.44 111.477 116.514 113.182 115.904 115.138C115.23 117.116 114.894 119.178 114.894 121.367C114.894 122.882 115.104 124.565 115.567 126.417C116.009 128.268 116.787 130.036 117.924 131.719C118.976 133.36 120.47 134.728 122.384 135.843C124.236 136.98 126.614 137.527 129.539 137.527H135.767C136.777 137.527 137.64 137.905 138.376 138.621C139.091 139.357 139.47 140.22 139.47 141.23V144.513C139.47 145.523 139.091 146.406 138.376 147.122C137.64 147.858 136.777 148.216 135.767 148.216H129.539C125.372 148.216 121.732 147.437 118.597 145.859C115.399 144.344 112.747 142.324 110.685 139.799C108.497 137.274 106.856 134.413 105.804 131.214C104.73 128.016 104.204 124.733 104.204 121.367C104.204 117.895 104.73 114.591 105.804 111.435C106.814 108.363 108.35 105.607 110.433 103.187C112.789 100.325 115.588 98.1788 118.849 96.7059C122.048 95.254 125.604 94.5176 129.539 94.5176H135.767C136.777 94.5176 137.64 94.8963 138.376 95.6117C139.091 96.3482 139.47 97.2109 139.47 98.2209V101.503C139.47 102.577 139.091 103.481 138.376 104.197C137.64 104.933 136.777 105.291 135.767 105.291H129.539Z" fill="#FF8200" style="fill:#FF8200;fill:color(display-p3 1.0000 0.5098 0.0000);fill-opacity:1;"/>
<path d="M180.228 144.513C180.502 144.912 180.649 145.333 180.649 145.775C180.649 146.238 180.565 146.617 180.397 146.953C180.165 147.353 179.85 147.669 179.471 147.879C179.134 148.111 178.734 148.216 178.292 148.216H171.307C170.402 148.216 169.707 147.858 169.202 147.122L161.796 135.17C161.291 134.392 160.617 133.992 159.776 133.992C159.102 133.992 158.534 134.244 158.092 134.749C157.587 135.212 157.335 135.759 157.335 136.433V145.775C157.335 146.448 157.103 147.038 156.662 147.543C156.157 148.005 155.588 148.216 154.978 148.216H149.087C148.413 148.216 147.824 148.005 147.319 147.543C146.856 147.038 146.646 146.448 146.646 145.775V96.9584C146.646 96.2851 146.856 95.6959 147.319 95.1909C147.824 94.749 148.413 94.5176 149.087 94.5176H162.974C165.836 94.5176 168.466 95.0857 170.886 96.2009C173.285 97.3372 175.347 98.9363 177.03 100.998C178.545 102.808 179.681 104.828 180.481 107.058C181.196 109.415 181.575 111.835 181.575 114.297C181.575 116.822 181.196 119.22 180.481 121.451C179.681 123.765 178.545 125.807 177.03 127.595C176.23 128.605 175.262 129.573 174.084 130.457C173.579 130.857 173.263 131.362 173.158 131.972C173.032 132.603 173.158 133.15 173.495 133.655L180.228 144.513ZM168.782 120.778C169.455 119.936 169.981 118.968 170.381 117.832C170.717 116.78 170.886 115.601 170.886 114.297C170.886 114.086 170.823 113.497 170.717 112.529C170.591 111.519 170.297 110.488 169.792 109.415C169.287 108.363 168.529 107.374 167.519 106.469C166.446 105.628 164.931 105.207 162.974 105.207H159.776C159.102 105.207 158.534 105.438 158.092 105.88C157.587 106.385 157.335 106.974 157.335 107.648V120.946C157.335 121.577 157.587 122.124 158.092 122.629C158.534 123.092 159.102 123.303 159.776 123.303H162.974C165.541 123.303 167.477 122.461 168.782 120.778Z" fill="#FF8200" style="fill:#FF8200;fill:color(display-p3 1.0000 0.5098 0.0000);fill-opacity:1;"/>
<path d="M227.638 145.775C227.807 146.406 227.723 146.953 227.386 147.458C226.986 147.963 226.46 148.216 225.787 148.216H218.801C218.338 148.216 217.917 148.09 217.538 147.795C217.202 147.522 216.949 147.164 216.781 146.701L214.424 138.453C214.256 138.074 214.003 137.737 213.667 137.443C213.33 137.169 212.909 137.022 212.404 137.022H200.789C200.326 137.022 199.906 137.169 199.527 137.443C199.19 137.737 198.938 138.074 198.769 138.453L196.497 146.701C196.328 147.164 196.076 147.522 195.739 147.795C195.339 148.09 194.919 148.216 194.477 148.216H187.407C186.776 148.216 186.271 147.963 185.892 147.458C185.492 146.953 185.387 146.406 185.555 145.775L199.948 96.0326C200.116 95.5907 200.368 95.233 200.705 94.9384C201.042 94.6649 201.463 94.5176 201.968 94.5176H211.31C211.752 94.5176 212.173 94.6649 212.573 94.9384C212.909 95.233 213.162 95.5907 213.33 96.0326L227.638 145.775ZM210.132 126.333C210.3 126.333 210.468 126.248 210.637 126.08C210.742 125.975 210.763 125.828 210.721 125.659L207.186 113.371C207.123 113.097 206.954 112.95 206.681 112.95C206.344 112.95 206.134 113.097 206.092 113.371L202.557 125.659C202.494 125.828 202.515 125.975 202.641 126.08C202.746 126.248 202.893 126.333 203.062 126.333H210.132Z" fill="#FF8200" style="fill:#FF8200;fill:color(display-p3 1.0000 0.5098 0.0000);fill-opacity:1;"/>
<path d="M244.718 136.096C244.55 136.433 244.571 136.748 244.802 137.022C244.971 137.358 245.244 137.527 245.644 137.527H259.952C260.668 137.527 261.299 137.758 261.804 138.2C262.309 138.705 262.561 139.336 262.561 140.052V145.691C262.561 146.427 262.309 147.017 261.804 147.458C261.299 147.963 260.668 148.216 259.952 148.216H231.083C230.62 148.216 230.199 148.111 229.821 147.879C229.484 147.669 229.189 147.374 228.979 147.038C228.747 146.659 228.6 146.259 228.558 145.859C228.495 145.48 228.579 145.06 228.811 144.597L246.906 106.722C247.075 106.385 247.075 106.048 246.906 105.712C246.675 105.438 246.359 105.291 245.981 105.291H230.999C230.262 105.291 229.673 105.038 229.231 104.533C228.726 104.028 228.474 103.418 228.474 102.682V97.0426C228.474 96.3272 228.726 95.6959 229.231 95.1909C229.673 94.749 230.262 94.5176 230.999 94.5176H260.626C261.067 94.5176 261.467 94.6438 261.804 94.8542C262.183 95.0857 262.498 95.3592 262.73 95.6959C262.898 96.0326 263.024 96.4113 263.151 96.7901C263.151 97.253 263.024 97.6949 262.814 98.1367L244.718 136.096Z" fill="#FF8200" style="fill:#FF8200;fill:color(display-p3 1.0000 0.5098 0.0000);fill-opacity:1;"/>
<path d="M302.962 95.2754C303.509 95.2754 303.93 95.5069 304.225 95.9487C304.561 96.4537 304.561 96.9587 304.225 97.4637L289.664 123.219C289.496 123.387 289.411 123.619 289.411 123.892V146.785C289.411 147.185 289.264 147.522 288.991 147.795C288.696 148.09 288.359 148.216 287.981 148.216H280.237C279.838 148.216 279.48 148.09 279.143 147.795C278.849 147.522 278.722 147.185 278.722 146.785V123.892C278.722 123.682 278.659 123.45 278.554 123.219L263.993 97.4637C263.699 96.9587 263.699 96.4537 263.993 95.9487C264.267 95.5069 264.688 95.2754 265.256 95.2754H274.177C274.724 95.2754 275.145 95.5069 275.44 95.9487L283.52 110.089C283.625 110.383 283.856 110.51 284.193 110.51C284.404 110.51 284.614 110.383 284.782 110.089L292.778 95.9487C293.052 95.5069 293.451 95.2754 293.956 95.2754H302.962Z" fill="#FF8200" style="fill:#FF8200;fill:color(display-p3 1.0000 0.5098 0.0000);fill-opacity:1;"/>
<path d="M139.723 180.606C141.343 182.121 142.605 183.846 143.51 185.74C144.352 187.76 144.773 189.843 144.773 191.968C144.773 193.988 144.373 195.966 143.594 197.86C142.795 199.775 141.616 201.479 140.059 202.994C138.481 204.509 136.545 205.729 134.252 206.613C131.895 207.581 129.202 208.044 126.172 208.044H109.507C108.876 208.044 108.371 207.855 107.992 207.455C107.592 207.076 107.403 206.592 107.403 206.024V156.45C107.403 155.903 107.592 155.398 107.992 154.935C108.371 154.556 108.876 154.346 109.507 154.346H123.731C126.761 154.346 129.454 154.83 131.811 155.777C134.104 156.681 136.061 157.881 137.703 159.396C139.218 160.911 140.354 162.657 141.153 164.614C141.932 166.592 142.332 168.549 142.332 170.506C142.332 172.021 142.1 173.536 141.658 175.051C141.195 176.566 140.501 177.975 139.554 179.259C139.386 179.49 139.323 179.722 139.386 179.932C139.428 180.227 139.554 180.437 139.723 180.606ZM118.092 173.788C118.092 174.356 118.281 174.84 118.681 175.219C119.06 175.619 119.565 175.808 120.196 175.808H123.731C126.593 175.808 128.718 175.177 130.128 173.872C131.138 172.989 131.643 171.852 131.643 170.506C131.643 169.832 131.495 169.159 131.222 168.486C130.885 167.875 130.401 167.307 129.791 166.802C129.118 166.297 128.276 165.877 127.266 165.54C126.256 165.266 125.078 165.119 123.731 165.119H120.196C119.565 165.119 119.06 165.329 118.681 165.708C118.281 166.108 118.092 166.592 118.092 167.139V173.788ZM132.568 195.419C133.578 194.409 134.083 193.273 134.083 191.968C134.083 191.295 133.915 190.664 133.578 190.032C133.284 189.359 132.821 188.77 132.148 188.265C131.516 187.76 130.717 187.339 129.707 187.002C128.697 186.666 127.518 186.497 126.172 186.497H120.196C119.565 186.497 119.06 186.729 118.681 187.171C118.281 187.57 118.092 188.075 118.092 188.686V195.251C118.092 195.882 118.281 196.387 118.681 196.766C119.06 197.165 119.565 197.355 120.196 197.355H126.172C129.033 197.355 131.159 196.724 132.568 195.419Z" fill="#FF8200" style="fill:#FF8200;fill:color(display-p3 1.0000 0.5098 0.0000);fill-opacity:1;"/>
<path d="M185.269 154.346C185.879 154.346 186.405 154.577 186.868 155.019C187.31 155.524 187.542 156.092 187.542 156.702V190.622C187.542 193.315 187.037 195.798 186.027 198.028C184.89 200.343 183.333 202.3 181.313 203.92C179.63 205.267 177.694 206.319 175.506 207.034C173.317 207.77 171.045 208.128 168.688 208.128C166.332 208.128 164.059 207.77 161.871 207.034C159.725 206.319 157.789 205.267 156.063 203.92C154.043 202.3 152.486 200.343 151.434 198.028C150.361 195.798 149.835 193.315 149.835 190.622V156.702C149.835 156.092 150.045 155.524 150.508 155.019C150.95 154.577 151.518 154.346 152.192 154.346H158.252C158.862 154.346 159.388 154.577 159.851 155.019C160.293 155.524 160.524 156.092 160.524 156.702V190.622C160.524 192.263 160.903 193.525 161.702 194.409C162.481 195.314 163.344 195.987 164.312 196.429C165.259 196.892 166.184 197.144 167.089 197.187C167.931 197.313 168.457 197.355 168.688 197.355C168.899 197.355 169.467 197.313 170.372 197.187C171.213 197.144 172.139 196.892 173.149 196.429C174.033 195.987 174.917 195.314 175.758 194.409C176.474 193.525 176.852 192.263 176.852 190.622V156.702C176.852 156.092 177.063 155.524 177.526 155.019C177.968 154.577 178.536 154.346 179.209 154.346H185.269Z" fill="#FF8200" style="fill:#FF8200;fill:color(display-p3 1.0000 0.5098 0.0000);fill-opacity:1;"/>
<path d="M228.336 204.341C228.61 204.74 228.757 205.161 228.757 205.603C228.757 206.066 228.673 206.445 228.504 206.782C228.273 207.181 227.957 207.497 227.579 207.707C227.242 207.939 226.842 208.044 226.4 208.044H219.414C218.51 208.044 217.815 207.686 217.31 206.95L209.904 194.998C209.399 194.22 208.725 193.82 207.884 193.82C207.21 193.82 206.642 194.072 206.2 194.577C205.695 195.04 205.443 195.587 205.443 196.261V205.603C205.443 206.277 205.211 206.866 204.769 207.371C204.264 207.834 203.696 208.044 203.086 208.044H197.194C196.521 208.044 195.932 207.834 195.427 207.371C194.964 206.866 194.754 206.277 194.754 205.603V156.787C194.754 156.113 194.964 155.524 195.427 155.019C195.932 154.577 196.521 154.346 197.194 154.346H211.082C213.944 154.346 216.574 154.914 218.994 156.029C221.392 157.165 223.454 158.764 225.138 160.827C226.653 162.636 227.789 164.656 228.589 166.887C229.304 169.243 229.683 171.663 229.683 174.125C229.683 176.65 229.304 179.049 228.589 181.279C227.789 183.594 226.653 185.635 225.138 187.423C224.338 188.433 223.37 189.401 222.192 190.285C221.687 190.685 221.371 191.19 221.266 191.8C221.14 192.431 221.266 192.978 221.603 193.483L228.336 204.341ZM216.889 180.606C217.563 179.764 218.089 178.796 218.489 177.66C218.825 176.608 218.994 175.429 218.994 174.125C218.994 173.914 218.931 173.325 218.825 172.357C218.699 171.347 218.404 170.316 217.899 169.243C217.394 168.191 216.637 167.202 215.627 166.297C214.554 165.456 213.039 165.035 211.082 165.035H207.884C207.21 165.035 206.642 165.266 206.2 165.708C205.695 166.213 205.443 166.802 205.443 167.476V180.774C205.443 181.405 205.695 181.952 206.2 182.457C206.642 182.92 207.21 183.131 207.884 183.131H211.082C213.649 183.131 215.585 182.289 216.889 180.606Z" fill="#FF8200" style="fill:#FF8200;fill:color(display-p3 1.0000 0.5098 0.0000);fill-opacity:1;"/>
<path d="M268.508 180.942C269.224 180.942 269.813 181.195 270.276 181.7C270.781 182.205 271.033 182.836 271.033 183.552V205.519C271.033 206.255 270.781 206.845 270.276 207.287C269.813 207.792 269.224 208.044 268.508 208.044H258.997C254.831 208.044 251.191 207.265 248.056 205.687C244.857 204.172 242.206 202.152 240.144 199.627C237.956 197.102 236.315 194.241 235.262 191.042C234.189 187.844 233.663 184.562 233.663 181.195C233.663 177.723 234.189 174.419 235.262 171.263C236.272 168.191 237.809 165.435 239.892 163.015C242.248 160.153 245.047 158.007 248.308 156.534C251.507 155.082 255.063 154.346 258.997 154.346H266.404C267.077 154.346 267.667 154.577 268.172 155.019C268.677 155.524 268.929 156.155 268.929 156.871V162.51C268.929 163.246 268.677 163.857 268.172 164.362C267.667 164.867 267.077 165.119 266.404 165.119H258.997C254.326 165.119 250.707 166.697 248.14 169.832C246.899 171.305 245.973 173.01 245.362 174.967C244.689 176.944 244.352 179.007 244.352 181.195C244.352 182.71 244.563 184.393 245.026 186.245C245.468 188.097 246.246 189.864 247.382 191.547C248.435 193.189 249.929 194.556 251.843 195.672C253.695 196.808 256.073 197.355 258.997 197.355C259.376 197.355 259.713 197.229 260.007 196.934C260.218 196.724 260.344 196.408 260.344 196.008V192.894C260.344 192.557 260.218 192.263 260.007 191.968C259.776 191.758 259.502 191.632 259.166 191.632C258.429 191.632 257.84 191.379 257.398 190.874C256.893 190.432 256.641 189.864 256.641 189.191V183.552C256.641 182.836 256.893 182.205 257.398 181.7C257.84 181.195 258.429 180.942 259.166 180.942H268.508Z" fill="#FF8200" style="fill:#FF8200;fill:color(display-p3 1.0000 0.5098 0.0000);fill-opacity:1;"/>
<path d="M290.669 165.119C290.164 165.119 289.765 165.266 289.491 165.54C289.091 165.877 288.902 166.297 288.902 166.802V174.125C288.902 174.63 289.091 175.051 289.491 175.387C289.765 175.682 290.164 175.808 290.669 175.808H297.992C298.497 175.808 298.918 175.977 299.254 176.313C299.591 176.713 299.759 177.155 299.759 177.66V184.814C299.759 185.319 299.591 185.74 299.254 186.077C298.918 186.371 298.497 186.497 297.992 186.497H290.669C290.164 186.497 289.765 186.666 289.491 187.002C289.091 187.402 288.902 187.844 288.902 188.349V195.587C288.902 196.092 289.091 196.513 289.491 196.85C289.765 197.187 290.164 197.355 290.669 197.355H309.102C309.607 197.355 310.028 197.523 310.364 197.86C310.701 198.197 310.869 198.596 310.869 199.038V206.277C310.869 206.782 310.701 207.202 310.364 207.539C310.028 207.876 309.607 208.044 309.102 208.044H279.98C279.475 208.044 279.054 207.876 278.718 207.539C278.381 207.202 278.213 206.782 278.213 206.277V156.113C278.213 155.608 278.381 155.187 278.718 154.851C279.054 154.514 279.475 154.346 279.98 154.346H309.102C309.607 154.346 310.028 154.514 310.364 154.851C310.701 155.187 310.869 155.608 310.869 156.113V163.267C310.869 163.772 310.701 164.193 310.364 164.53C310.028 164.93 309.607 165.119 309.102 165.119H290.669Z" fill="#FF8200" style="fill:#FF8200;fill:color(display-p3 1.0000 0.5098 0.0000);fill-opacity:1;"/>
<mask id="mask4_1069_1711" style="mask-type:luminance" maskUnits="userSpaceOnUse" x="317" y="150" width="38" height="61">
<path d="M317.813 150.826H354.657V210.08H317.813V150.826Z" fill="white" style="fill:white;fill-opacity:1;"/>
</mask>
<g mask="url(#mask4_1069_1711)">
<path d="M351.633 204.341C351.906 204.74 352.054 205.161 352.054 205.603C352.054 206.066 351.969 206.445 351.801 206.782C351.57 207.181 351.254 207.497 350.875 207.707C350.539 207.939 350.139 208.044 349.697 208.044H342.711C341.806 208.044 341.112 207.686 340.607 206.95L333.2 194.998C332.695 194.22 332.022 193.82 331.18 193.82C330.507 193.82 329.939 194.072 329.497 194.577C328.992 195.04 328.739 195.587 328.739 196.261V205.603C328.739 206.277 328.508 206.866 328.066 207.371C327.561 207.834 326.993 208.044 326.383 208.044H320.491C319.818 208.044 319.229 207.834 318.724 207.371C318.261 206.866 318.05 206.277 318.05 205.603V156.787C318.05 156.113 318.261 155.524 318.724 155.019C319.229 154.577 319.818 154.346 320.491 154.346H334.379C337.24 154.346 339.871 154.914 342.29 156.029C344.689 157.165 346.751 158.764 348.434 160.827C349.949 162.636 351.086 164.656 351.885 166.887C352.601 169.243 352.979 171.663 352.979 174.125C352.979 176.65 352.601 179.049 351.885 181.279C351.086 183.594 349.949 185.635 348.434 187.423C347.635 188.433 346.667 189.401 345.489 190.285C344.984 190.685 344.668 191.19 344.563 191.8C344.437 192.431 344.563 192.978 344.899 193.483L351.633 204.341ZM340.186 180.606C340.859 179.764 341.386 178.796 341.785 177.66C342.122 176.608 342.29 175.429 342.29 174.125C342.29 173.914 342.227 173.325 342.122 172.357C341.996 171.347 341.701 170.316 341.196 169.243C340.691 168.191 339.934 167.202 338.924 166.297C337.851 165.456 336.336 165.035 334.379 165.035H331.18C330.507 165.035 329.939 165.266 329.497 165.708C328.992 166.213 328.739 166.802 328.739 167.476V180.774C328.739 181.405 328.992 181.952 329.497 182.457C329.939 182.92 330.507 183.131 331.18 183.131H334.379C336.946 183.131 338.882 182.289 340.186 180.606Z" fill="#FF8200" style="fill:#FF8200;fill:color(display-p3 1.0000 0.5098 0.0000);fill-opacity:1;"/>
</g>
</g>
</g>
</g>
</svg>
